<?xml version="1.0" encoding="utf-8"?>
<!-- Generator: Adobe Illustrator 19.1.0, SVG Export Plug-In . SVG Version: 6.00 Build 0)  -->
<svg version="1.1" baseProfile="tiny" id="Layer_1" xmlns="http://www.w3.org/2000/svg" xmlns:xlink="http://www.w3.org/1999/xlink"
	 x="0px" y="0px" viewBox="-240 332 130 130" xml:space="preserve">
<g id="Layer_1_1_">
	<path fill="#000000" d="M-175,334.7c-34.4,0-62.4,27.9-62.4,62.4s27.9,62.4,62.4,62.4c34.4,0,62.4-27.9,62.4-62.4
		S-140.6,334.7-175,334.7z M-151.5,426.6c-6.4,5.1-14.6,8.2-23.5,8.2h0c-20.8,0-37.7-16.9-37.7-37.7h-0.6h-8.6
		c-0.5,0-0.9-0.2-1.2-0.7c-0.3-0.5-0.2-1.1,0.1-1.5l14.1-19.8c0.3-0.4,0.6-0.6,1.2-0.6c0.4,0,0.7,0.2,1.1,0.6l14.2,19.8
		c0.3,0.4,0.4,1,0.1,1.5c-0.3,0.5-0.6,0.7-1.2,0.7h-8.4h-0.7c0,15.3,12.4,27.7,27.7,27.7h0c6.4,0,12.3-2.2,17-5.9
		c0.7-0.5,1.6-0.4,2.2,0.2c0.6,0.6,3.5,3.8,4.4,4.9C-150.7,424.8-150.7,426-151.5,426.6z M-179.4,397c0-2.4,2-4.4,4.4-4.4
		c2.4,0,4.4,2,4.4,4.4c0,2.4-2,4.4-4.4,4.4C-177.4,401.4-179.4,399.5-179.4,397z M-141.1,419.1c-0.3,0.4-0.6,0.6-1.2,0.6
		c-0.4,0-0.7-0.2-1.1-0.6l-14.2-19.8c-0.3-0.4-0.4-1-0.1-1.5c0.3-0.5,0.6-0.7,1.2-0.7h8.4h0.7c0-15.3-12.4-27.7-27.7-27.7h0
		c-6.4,0-12.3,2.2-17,5.9c-0.7,0.5-1.6,0.4-2.2-0.2c-0.6-0.6-3.5-3.8-4.4-4.9c-0.7-0.8-0.6-2,0.2-2.6c6.4-5.1,14.6-8.2,23.5-8.2h0
		c20.8,0,37.7,16.9,37.7,37.7h0.6h8.6c0.5,0,0.9,0.2,1.2,0.7c0.3,0.5,0.2,1.1-0.1,1.5L-141.1,419.1z"/>
</g>
<g id="Layer_2">
	<path fill="#FFFFFF" d="M-151.4,424c-0.9-1-3.9-4.3-4.4-4.9c-0.6-0.6-1.5-0.7-2.2-0.2c-4.7,3.7-10.6,5.9-17,5.9h0
		c-15.3,0-27.7-12.4-27.7-27.7h0.7h8.4c0.5,0,0.9-0.2,1.2-0.7s0.2-1.1-0.1-1.5l-14.2-19.8c-0.3-0.4-0.6-0.6-1.1-0.6
		c-0.5,0-0.9,0.2-1.2,0.6l-14.1,19.8c-0.3,0.4-0.4,1-0.1,1.5c0.3,0.5,0.6,0.7,1.2,0.7h8.6h0.6c0,20.8,16.9,37.7,37.7,37.7h0
		c8.9,0,17-3.1,23.5-8.2C-150.7,426-150.7,424.8-151.4,424z"/>
	<path fill="#FFFFFF" d="M-126.9,397.8c-0.3-0.5-0.6-0.7-1.2-0.7h-8.6h-0.6c0-20.8-16.9-37.7-37.7-37.7h0c-8.9,0-17,3.1-23.5,8.2
		c-0.8,0.6-0.8,1.8-0.2,2.6c0.9,1,3.9,4.3,4.4,4.9c0.6,0.6,1.5,0.7,2.2,0.2c4.7-3.7,10.6-5.9,17-5.9h0c15.3,0,27.7,12.4,27.7,27.7
		h-0.7h-8.4c-0.5,0-0.9,0.2-1.2,0.7c-0.3,0.5-0.2,1.1,0.1,1.5l14.2,19.8c0.3,0.4,0.6,0.6,1.1,0.6c0.5,0,0.9-0.2,1.2-0.6l14.1-19.8
		C-126.7,398.9-126.6,398.3-126.9,397.8z"/>
	<circle fill="#FFFFFF" cx="-175" cy="397" r="4.4"/>
</g>
</svg>
