<?xml version="1.0" encoding="utf-8"?>
<!-- Generator: Adobe Illustrator 19.1.0, SVG Export Plug-In . SVG Version: 6.00 Build 0)  -->
<svg version="1.1" baseProfile="tiny" id="Layer_1" xmlns="http://www.w3.org/2000/svg" xmlns:xlink="http://www.w3.org/1999/xlink"
	 x="0px" y="0px" viewBox="-240 332 130 130" xml:space="preserve">
<g id="Layer_1_1_">
	<path fill="#000000" d="M-175,340.9c-31,0-56.1,25.1-56.1,56.1s25.1,56.1,56.1,56.1c31,0,56.1-25.1,56.1-56.1S-144,340.9-175,340.9
		z M-153.9,423.6c-5.8,4.6-13.1,7.4-21.1,7.4h0c-18.7,0-34-15.2-34-34h-0.5h-7.7c-0.5,0-0.8-0.2-1.1-0.7c-0.3-0.5-0.2-1,0.1-1.3
		l12.7-17.8c0.3-0.4,0.6-0.6,1.1-0.6c0.4,0,0.7,0.2,1,0.6l12.8,17.8c0.3,0.4,0.4,0.9,0.1,1.3c-0.3,0.5-0.6,0.7-1.1,0.7h-7.6h-0.7
		c0,13.8,11.2,25,25,25h0c5.8,0,11.1-2,15.3-5.3c0.6-0.5,1.4-0.4,2,0.2c0.5,0.5,3.1,3.5,4,4.4C-153.1,422-153.2,423.1-153.9,423.6z
		 M-179,397c0-2.2,1.8-4,4-4c2.2,0,4,1.8,4,4c0,2.2-1.8,4-4,4C-177.2,401-179,399.2-179,397z M-144.5,416.9
		c-0.3,0.4-0.6,0.6-1.1,0.6c-0.4,0-0.7-0.2-1-0.6l-12.8-17.8c-0.3-0.4-0.4-0.9-0.1-1.3c0.3-0.5,0.6-0.7,1.1-0.7h7.6h0.7
		c0-13.8-11.2-25-25-25h0c-5.8,0-11.1,2-15.3,5.3c-0.6,0.5-1.4,0.4-2-0.2c-0.5-0.5-3.1-3.5-4-4.4c-0.6-0.7-0.6-1.8,0.1-2.3
		c5.8-4.6,13.1-7.4,21.1-7.4h0c18.7,0,34,15.2,34,34h0.5h7.7c0.5,0,0.8,0.2,1.1,0.7c0.3,0.5,0.2,1-0.1,1.3L-144.5,416.9z"/>
</g>
<g id="Layer_2">
	<path fill="#FFFFFF" d="M-153.7,421.3c-0.8-0.9-3.5-3.9-4-4.4c-0.6-0.6-1.4-0.6-2-0.2c-4.2,3.3-9.5,5.3-15.3,5.3h0
		c-13.8,0-25-11.2-25-25h0.7h7.6c0.5,0,0.8-0.2,1.1-0.7c0.3-0.5,0.2-1-0.1-1.3l-12.8-17.8c-0.3-0.4-0.6-0.6-1-0.6
		c-0.5,0-0.8,0.2-1.1,0.6l-12.7,17.8c-0.3,0.4-0.4,0.9-0.1,1.3c0.3,0.5,0.6,0.7,1.1,0.7h7.7h0.5c0,18.7,15.2,34,34,34h0
		c8,0,15.3-2.8,21.1-7.4C-153.2,423.1-153.1,422-153.7,421.3z"/>
	<path fill="#FFFFFF" d="M-131.7,397.7c-0.3-0.5-0.6-0.7-1.1-0.7h-7.7h-0.5c0-18.7-15.2-34-34-34h0c-8,0-15.3,2.8-21.1,7.4
		c-0.7,0.5-0.8,1.6-0.1,2.3c0.8,0.9,3.5,3.9,4,4.4c0.6,0.6,1.4,0.6,2,0.2c4.2-3.3,9.5-5.3,15.3-5.3h0c13.8,0,25,11.2,25,25h-0.7
		h-7.6c-0.5,0-0.8,0.2-1.1,0.7c-0.3,0.5-0.2,1,0.1,1.3l12.8,17.8c0.3,0.4,0.6,0.6,1,0.6c0.5,0,0.8-0.2,1.1-0.6l12.7-17.8
		C-131.5,398.7-131.4,398.2-131.7,397.7z"/>
	<circle fill="#FFFFFF" cx="-175" cy="397" r="4"/>
</g>
</svg>
