<?xml version="1.0" encoding="utf-8"?>
<!-- Generator: Adobe Illustrator 19.1.0, SVG Export Plug-In . SVG Version: 6.00 Build 0)  -->
<svg version="1.1" baseProfile="tiny" id="Layer_1" xmlns="http://www.w3.org/2000/svg" xmlns:xlink="http://www.w3.org/1999/xlink"
	 x="0px" y="0px" viewBox="-240 332 130 130" xml:space="preserve">
<g id="Layer_1_1_">
	<g>
		<path fill="#000000" d="M-209.6,421.6h69.3v-49.3h-69.3V421.6z M-179.3,397.4c0,0,19.6-14.1,19.7-14.1l-4.5-6.2
			c-0.2-0.3-0.2-0.6-0.1-1c0.2-0.4,0.5-0.6,0.9-0.6l18-0.1c0.4,0,0.7,0.1,0.9,0.4c0.2,0.3,0.2,0.5,0.1,0.9l-5.8,17.1
			c-0.1,0.4-0.4,0.7-0.8,0.7c-0.5,0-0.7-0.1-1-0.4l-4.3-6c-0.1,0.1-19.7,14.1-19.7,14.1c-0.8,0.5-1.8,0.4-2.4-0.4l-1.5-2.1
			C-180.2,399-180,397.9-179.3,397.4z"/>
		<path fill="#000000" d="M-175,334.6c-34.4,0-62.4,27.9-62.4,62.4s27.9,62.4,62.4,62.4c34.4,0,62.4-27.9,62.4-62.4
			S-140.6,334.6-175,334.6z M-134.4,422.9c0,2.6-2.1,4.7-4.7,4.7h-71.8c-2.6,0-4.7-2.1-4.7-4.7v-51.8c0-2.6,2.1-4.7,4.7-4.7h71.8
			c2.6,0,4.7,2.1,4.7,4.7V422.9z"/>
	</g>
</g>
<g id="Layer_2">
	<path fill="#FFFFFF" d="M-144.3,375.8c-0.2-0.3-0.5-0.4-0.9-0.4l-18,0.1c-0.4,0-0.8,0.2-0.9,0.6c-0.2,0.4-0.2,0.7,0.1,1l4.5,6.2
		c-0.1,0-19.7,14.1-19.7,14.1c-0.8,0.5-0.9,1.6-0.4,2.4l1.5,2.1c0.5,0.8,1.6,0.9,2.4,0.4c0,0,19.6-14.1,19.7-14.1l4.3,6
		c0.2,0.3,0.5,0.4,1,0.4c0.5,0,0.7-0.3,0.8-0.7l5.8-17.1C-144.1,376.3-144.1,376-144.3,375.8z"/>
	<path fill="#FFFFFF" d="M-139.1,427.6h-71.8c-2.6,0-4.7-2.1-4.7-4.7v-51.8c0-2.6,2.1-4.7,4.7-4.7h71.8c2.6,0,4.7,2.1,4.7,4.7v51.8
		C-134.4,425.5-136.5,427.6-139.1,427.6z M-209.6,421.6h69.3v-49.3h-69.3V421.6z"/>
</g>
</svg>
