<?xml version="1.0" standalone="no"?>
<!DOCTYPE svg PUBLIC "-//W3C//DTD SVG 1.1//EN" "http://www.w3.org/Graphics/SVG/1.1/DTD/svg11.dtd" >
<svg xmlns="http://www.w3.org/2000/svg">
<metadata>
Created by FontForge 20120731 at Mon Sep 19 16:10:29 2016
 By admin
</metadata>
<defs>
<font id="iconfont" horiz-adv-x="1024" >
  <font-face 
    font-family="iconfont"
    font-weight="500"
    font-stretch="normal"
    units-per-em="1024"
    panose-1="2 0 6 3 0 0 0 0 0 0"
    ascent="896"
    descent="-128"
    x-height="792"
    bbox="-4 -212 1295 896"
    underline-thickness="50"
    underline-position="-100"
    unicode-range="U+0078-E72C"
  />
<missing-glyph horiz-adv-x="374" 
d="M34 0v682h272v-682h-272zM68 34h204v614h-204v-614z" />
    <glyph glyph-name=".notdef" horiz-adv-x="374" 
d="M34 0v682h272v-682h-272zM68 34h204v614h-204v-614z" />
    <glyph glyph-name=".null" horiz-adv-x="0" 
 />
    <glyph glyph-name="nonmarkingreturn" horiz-adv-x="341" 
 />
    <glyph glyph-name="x" unicode="x" horiz-adv-x="1001" 
d="M281 543q-27 -1 -53 -1h-83q-18 0 -36.5 -6t-32.5 -18.5t-23 -32t-9 -45.5v-76h912v41q0 16 -0.5 30t-0.5 18q0 13 -5 29t-17 29.5t-31.5 22.5t-49.5 9h-133v-97h-438v97zM955 310v-52q0 -23 0.5 -52t0.5 -58t-10.5 -47.5t-26 -30t-33 -16t-31.5 -4.5q-14 -1 -29.5 -0.5
t-29.5 0.5h-32l-45 128h-439l-44 -128h-29h-34q-20 0 -45 1q-25 0 -41 9.5t-25.5 23t-13.5 29.5t-4 30v167h911zM163 247q-12 0 -21 -8.5t-9 -21.5t9 -21.5t21 -8.5q13 0 22 8.5t9 21.5t-9 21.5t-22 8.5zM316 123q-8 -26 -14 -48q-5 -19 -10.5 -37t-7.5 -25t-3 -15t1 -14.5
t9.5 -10.5t21.5 -4h37h67h81h80h64h36q23 0 34 12t2 38q-5 13 -9.5 30.5t-9.5 34.5q-5 19 -11 39h-368zM336 498v228q0 11 2.5 23t10 21.5t20.5 15.5t34 6h188q31 0 51.5 -14.5t20.5 -52.5v-227h-327z" />
    <glyph glyph-name="uniE600" unicode="&#xe600;" 
d="M239 -130q-18 0 -30.5 12.5t-12.5 30.5v319q0 17 12.5 29.5t30.5 12.5h321v310l-109 -110q-13 -12 -30.5 -12t-30 12.5t-12.5 30t12 30.5l180 179q1 2 3 3q12 13 30 13v0q18 0 30 -13q2 -1 3 -3l179 -179q13 -13 13 -30.5t-12.5 -30t-30.5 -12.5t-30 12l-109 110v-352
q0 -18 -12.5 -30.5t-30.5 -12.5h-321v-276q0 -18 -12.5 -30.5t-30.5 -12.5z" />
    <glyph glyph-name="uniE601" unicode="&#xe601;" horiz-adv-x="1025" 
d="M832 -32h64v64v0h-1h-1h-1h-1h-1h-1h-1h-1h-1h-1h-1h-1h-2h-1h-1h-1h-2h-1h-1h-2h-1h-1h-2h-1h-2h-1h-2h-2h-1h-2h-2h-1h-2h-2h-2h-1h-2h-2h-2h-2h-8v-64zM512 -96h128v-64h-128v64zM1013 659l-124 106q-15 12 -33 5l-97 -40l-77 -48q-17 -11 -15 -31l10 -94l-90 -61
l-105 -13l-85 46l-52 102q-6 12 -18.5 16t-24.5 -2l-113 -55q-18 -9 -18 -29v-42l-38 -37h-43q-13 0 -23 -9l-57 -55q-10 -10 -10 -23.5t10 -22.5l50 -49l29 -137q3 -12 12 -19l105 -84q8 -7 20 -7h115v-70q0 -13 9.5 -22.5t22.5 -9.5h129l59 -39q16 -12 33 -2l80 46l109 41
q9 3 14 11l69 94q6 9 6 19v93q0 14 -9 23l-40 39l50 34q8 4 11 12l36 71l90 63q14 10 14 27v129q0 14 -11 24zM960 522l-83 -58q-7 -4 -10 -12l-36 -70l-77 -51q-13 -9 -14.5 -24t9.5 -26l59 -57v-69l-57 -79l-105 -40l-66 -37l-50 34q-8 5 -18 5h-107v70q0 13 -9 22.5
t-23 9.5h-136l-87 70l-29 136q-2 10 -9 16l-34 33l30 23h38q13 0 22 9l57 56q10 9 10 23l-6 10l73 58l43 -83q4 -9 13 -14l102 -55q9 -5 19 -4l124 15q8 1 14 5l112 77q15 11 13 30l-9 93l56 36l73 29l98 -83v-98z" />
    <glyph glyph-name="uniE602" unicode="&#xe602;" 
d="M602 -65h-179q-55 0 -82 0.5t-70 3t-64 8t-44.5 15t-33 25t-9.5 36.5v18q0 123 89 210.5t214 87.5h179q125 0 214 -87.5t89 -210.5v-18q0 -16 -5.5 -29t-19.5 -22t-27 -15.5t-39 -10.5t-44 -6t-52.5 -3t-55 -1.5t-60.5 -0.5zM423 287q-103 0 -176.5 -72t-73.5 -174v-18
q0 -12 21.5 -20t66.5 -10.5t76 -3.5t86 -1h179q49 0 79 1t76.5 3.5t71 10.5t24.5 20v18q0 102 -73.5 174t-177.5 72h-179zM503.5 357q-99.5 0 -170 69.5t-70.5 167.5t70.5 167.5t170 69.5t170.5 -69.5t71 -167.5t-71 -167.5t-170.5 -69.5zM316 594.5q0 -76.5 55 -130.5
t133 -54t133 54t55 130.5t-55 130.5t-133 54t-133 -54t-55 -130.5z" />
    <glyph glyph-name="uniE603" unicode="&#xe603;" 
d="M917 164q-9 0 -16 -3v0h-1l-388 -156l-388 156v0q-8 3 -16 3q-18 0 -30 -12t-12 -29q0 -27 26 -37l404 -163v0q8 -3 16 -3t16 3v0h1l404 163q26 10 26 37q0 17 -12.5 29t-29.5 12zM917 340q-9 0 -16 -3v0h-1l-388 -156l-388 156v0q-8 3 -16 3q-18 0 -30 -12t-12 -29
q0 -27 26 -37l404 -163v0q8 -3 16 -3t16 3v0h1l404 163q26 10 26 37q0 17 -12.5 29t-29.5 12zM92 438l404 -163v0q8 -3 16 -3t16 3v0h1l404 163q26 10 26 37.5t-26 37.5l-404 163h-1v0q-8 3 -16 3t-16 -3v0l-404 -163q-26 -10 -26 -37.5t26 -37.5z" />
    <glyph glyph-name="uniE604" unicode="&#xe604;" horiz-adv-x="1000" 
d="M569 -98q-22 -22 -54 -22t-54 22l-360 360q-22 23 -22 54.5t22 54.5l360 359q22 23 54 23t54 -23l360 -359q23 -23 23 -54.5t-23 -54.5z" />
    <glyph glyph-name="uniE605" unicode="&#xe605;" 
d="M953 147q0 -85 -59.5 -144.5t-144.5 -59.5h-474q-85 0 -144.5 59.5t-59.5 144.5v474q0 85 59.5 144.5t144.5 59.5h474q85 0 144.5 -59.5t59.5 -144.5v-474z" />
    <glyph glyph-name="uniE606" unicode="&#xe606;" horiz-adv-x="1025" 
d="M512 812h-1h-21v-255h87l-1 186q107 -16 194.5 -78t138 -158t50.5 -207q0 -91 -35.5 -173.5t-95.5 -142.5t-142.5 -95.5t-173.5 -35.5t-174 35.5t-143 95.5t-95 142.5t-35 173.5q0 93 35.5 175.5t98.5 144.5l-41 50q-74 -71 -116 -167t-42 -203q0 -104 40.5 -198.5
t109 -163.5t163.5 -109.5t199 -40.5t198.5 40.5t163.5 109.5t109.5 163.5t40.5 198.5t-40.5 199t-109.5 163.5t-163.5 109t-198.5 40.5zM562 356q-10 8 -22 13l-263 166l166 -263q5 -12 13 -22l2 -3h1q22 -21 53 -21t52.5 21.5t21.5 52.5t-21 53z" />
    <glyph glyph-name="uniE607" unicode="&#xe607;" 
d="M511 828q89 0 171 -35t141 -94t93.5 -140.5t34.5 -171t-34.5 -171t-93.5 -140.5t-141 -94t-171 -35t-171 35t-141 94t-93.5 140.5t-34.5 171t34.5 171t93.5 140.5t141 94t171 35zM511 896q-103 0 -197.5 -40t-162.5 -108t-108 -162.5t-40 -198t40 -197.5t108 -162
t162.5 -108t197.5 -40t197.5 40t162.5 108t108 162t40 197.5t-40 198t-108 162.5t-162.5 108t-197.5 40zM260 517h100v-402h-100v402zM461 718h100v-603h-100v603zM662 416h100v-301h-100v301z" />
    <glyph glyph-name="uniE608" unicode="&#xe608;" 
d="M881 524q-19 19 -46 19t-46 -19l-277 -276l-276 276q-19 19 -46 19t-46 -19t-19 -46t19 -46l322 -321q19 -19 46 -19t47 19l322 321q19 19 19 46t-19 46z" />
    <glyph glyph-name="uniE609" unicode="&#xe609;" horiz-adv-x="1000" 
d="M859 503l-312 312q-18 18 -44 18t-45 -18l-312 -312q-18 -19 -18 -44.5t18 -44t44 -18.5t44 18l206 206v-599q0 -26 18.5 -44.5t44.5 -18.5t44 18.5t18 44.5v599l206 -206q18 -18 44 -18t44.5 18.5t18.5 44t-19 44.5z" />
    <glyph glyph-name="uniE60A" unicode="&#xe60a;" 
d="M607 383l284 284q19 19 19 47t-19.5 47.5t-47 19.5t-47.5 -20l-284 -284l-284 284q-19 20 -47 20t-47.5 -19.5t-19.5 -47.5t20 -47l284 -284l-284 -284q-20 -20 -20 -47.5t19.5 -47t47.5 -19.5t47 19l284 284l284 -284q20 -19 47.5 -19t47 19.5t19.5 47t-19 47.5z" />
    <glyph glyph-name="uniE60B" unicode="&#xe60b;" 
d="M620 26h-43q-4 0 -7 -3t-3 -8q0 -22 -16 -38t-39 -16t-39 16t-16 38q0 5 -3 8t-7 3h-43q-5 0 -8 -3t-3 -8q0 -48 35.5 -83t83.5 -35t83.5 35t35.5 83q0 11 -11 11zM719 445q3 -6 10 -6h2q8 2 8 10q0 77 -43 134q-44 57 -117 71q-8 2 -11.5 -5.5t3.5 -12.5
q104 -81 148 -191zM956 80q0 7 -2 13q-8 52 -35.5 96.5t-70.5 74.5v185q0 105 -60 191t-158 123q-4 45 -38 76.5t-80 31.5t-80 -31.5t-38 -76.5q-98 -37 -158 -123t-60 -191v-185q-43 -30 -70.5 -74.5t-34.5 -96.5q-4 -9 -2 -18q-1 -8 -1 -16q0 -4 3 -7.5t7 -3.5h868
q4 0 7 3.5t3 7.5q0 7 -1 16q1 3 1 5zM575 713q21 -5 41 -13q75 -32 121 -101t46 -150v-216q0 -6 6 -9q72 -36 95 -111h-744q23 75 95 111q6 3 6 9v216q0 93 59 168t149 96q8 2 8 10v30q0 22 16.5 38t38.5 16t38.5 -16t16.5 -38v-30q0 -8 8 -10z" />
    <glyph glyph-name="uniE60C" unicode="&#xe60c;" 
d="M511 796l-67 -1q-114 -9 -209 -69.5t-149.5 -160t-54.5 -214.5q0 -91 35 -173.5t94.5 -142t142 -95t173.5 -35.5q115 0 214 55t160 150t69 209l2 67h-410v410zM853 318q-12 -153 -119.5 -250t-258.5 -97q-103 0 -190 51t-138 138.5t-51 190.5q0 150 97 257.5t249 120.5
v-411h411zM853 318zM545 862v-442h442q0 88 -36 169.5t-95.5 141.5t-141 95.5t-169.5 35.5zM613 791q33 -4 80 -24q65 -27 119 -81q53 -54 80 -118q19 -43 24 -80h-303v303zM613 791z" />
    <glyph glyph-name="uniE60D" unicode="&#xe60d;" 
d="M933 453h-351v351h-140v-351h-351v-140h351v-351h140v351h351v140z" />
    <glyph glyph-name="uniE60E" unicode="&#xe60e;" 
d="M91 453h842v-140h-842v140z" />
    <glyph glyph-name="uniE60F" unicode="&#xe60f;" horiz-adv-x="1000" 
d="M168 295l292 -293q18 -17 42 -17t41 17l293 293q17 17 17 41.5t-17 41.5t-41 17t-42 -17l-192 -193v562q0 24 -17.5 41t-41.5 17t-41.5 -17t-17.5 -41v-562l-193 193q-17 17 -41 17t-41.5 -17t-17.5 -41.5t18 -41.5z" />
    <glyph glyph-name="uniE610" unicode="&#xe610;" 
d="M458 190v-401h147v400q-37 -9 -73 -9q-37 0 -74 10zM532 812q-124 0 -212 -87.5t-88 -210.5t88 -210.5t212 -87.5t211.5 87.5t87.5 210.5t-87.5 210.5t-211.5 87.5zM414.5 643q-17.5 0 -30 12.5t-12.5 29.5t12.5 29.5t30 12.5t29.5 -12.5t12 -29.5t-12 -29.5t-29.5 -12.5
z" />
    <glyph glyph-name="uniE611" unicode="&#xe611;" 
d="M833 659l-825 -476l190 -330l825 476zM233 -17l-119 206l41 24l119 -207zM309 137l-71 123l41 24l72 -124zM433 208l-71 124l41 24l71 -124zM557 280l-72 123l42 24l71 -124zM681 351l-72 124l41 24l72 -124zM733 546l41 24l119 -206l-41 -24z" />
    <glyph glyph-name="uniE612" unicode="&#xe612;" 
d="M957 642h-110h-5h-3h-260v53q0 22 -23 37.5t-55.5 15.5t-55 -15.5t-22.5 -37.5v-53l-378 -1q-19 0 -32 -15.5t-13 -37.5t13 -37.5t32 -15.5h60l1 -650q0 -6 2 -12q3 -19 15.5 -31t28.5 -12l698 1q18 0 31 14t14 34q1 4 1 8l-1 649h62q19 0 32 15.5t13 37.5t-13 37.5
t-32 15.5zM211 -64l-1 599h285h7h7l281 1l1 -599zM368.5 502q-21.5 0 -37 -13.5t-15.5 -32.5v-442q0 -18 15.5 -31.5t37 -13.5t37 13.5t15.5 31.5v442q0 19 -15.5 32.5t-37 13.5zM632 502q-22 0 -37.5 -13.5t-15.5 -32.5l1 -442q0 -18 15 -31.5t37 -13.5t37.5 13.5
t15.5 31.5l-1 442q0 19 -15 32.5t-37 13.5z" />
    <glyph glyph-name="uniE613" unicode="&#xe613;" 
d="M497 423q-29 0 -50 -20.5t-21 -49.5v-291q0 -28 24.5 -49t54 -21t54 21t24.5 49v291q0 28 -27.5 49t-58.5 21zM505.5 812q-102.5 0 -196 -40t-161.5 -107.5t-108 -161t-40 -196t40 -196t108 -161t161.5 -107.5t196 -40t195.5 40t160.5 107.5t107 161t39.5 196t-39.5 196
t-107 161t-160.5 107.5t-195.5 40zM505.5 -84q-106.5 0 -197 52t-143.5 142.5t-53 197t53 197t143.5 143t197 52.5t196.5 -52.5t142 -143t52 -197t-52 -196.5t-142 -142.5t-196.5 -52.5zM507 619q-33 0 -56 -23t-23 -55.5t23 -56t56 -23.5t56 23.5t23 56t-23 55.5t-56 23z
" />
    <glyph glyph-name="uniE614" unicode="&#xe614;" 
d="M537 302l-142 142q-12 12 -12 29t12 29t29 12t29 -12l164 -164q6 -3 11 -8q14 -14 13 -34q0 -11 -6 -21q-3 -5 -7 -9l-168 -169q-13 -13 -31.5 -13t-31.5 13t-13 32t13 32z" />
    <glyph glyph-name="uniE615" unicode="&#xe615;" 
d="M519 219q41 40 41 84q0 36 -41 84l-272 278q-24 24 -24 59t24.5 60t58.5 25t59 -25l413 -421q24 -25 24 -60t-24 -60l-413 -421q-25 -25 -59 -25t-58.5 25t-24.5 59.5t24 59.5z" />
    <glyph glyph-name="uniE616" unicode="&#xe616;" 
d="M213 235h50v50h-50v99h599v-99h-50v-50h50q9 0 19.5 -0.5t14.5 -1t9 1t5.5 2t2 5.5t1 8.5t-1 14.5t-0.5 20v149q0 22 -1 36.5t-5.5 31t-15.5 24.5t-28 8h-599q-36 0 -43 -7t-7 -43v-199q0 -50 50 -50zM962 497v-225q0 -41 -13.5 -70t-37.5 -42.5t-47.5 -19t-51.5 -5.5
h-50l3 -200h-505l3 200h-50q-25 0 -59.5 17t-62.5 50t-28 70v225q0 58 41 99t99 41l59 -3v200h500v-200l60 3q58 0 99 -41t41 -99zM712 -15v300h-399v-300h399zM662 634v100h-299v-100h299z" />
    <glyph glyph-name="uniE617" unicode="&#xe617;" 
d="M678 382l194 127l-547 90l93 -532l130 189l233 -249l130 126zM774 96l-239 253l-84 -122l-56 302l319 -53l-120 -81l228 -255zM143 729h619v-69h69v137h-757v-825h275v68h-206v689z" />
    <glyph glyph-name="uniE618" unicode="&#xe618;" 
d="M911 81l-168 165q67 91 67 204q0 96 -48 177t-130.5 128t-180 47t-180 -47t-130.5 -128t-48 -177t48 -177t130.5 -128t179.5 -47q103 0 190 54q0 -1 1 -1l170 -167q20 -20 49 -20t49 20h1q20 20 20 48.5t-20 48.5zM451 177q-115 0 -196.5 80t-81.5 193t81.5 193t197 80
t197 -80t81.5 -193t-81.5 -193t-197.5 -80zM451 177z" />
    <glyph glyph-name="uniE619" unicode="&#xe619;" 
d="M916 316q-19 0 -32 -13t-13 -32v-45v-9q0 -25 -0.5 -39.5t-4 -35t-10.5 -32.5t-20 -25.5t-32 -20.5t-47 -12t-65 -5h-359q-30 0 -54 3t-41.5 7.5t-31 13.5t-22.5 16.5t-15 22t-9 24t-4.5 28t-2 29.5t-0.5 32v3v225q-4 51 4 86t28.5 53.5t44.5 27t58 11.5h3q18 0 31 13
t13 31.5t-13 32.5t-31 14l-3 -1v1h-45q-74 0 -127 -52.5t-53 -127.5v-403q0 -75 53 -127.5t127 -52.5h538q75 0 127.5 52.5t52.5 127.5v134q0 19 -13 32t-32 13zM221 297q0 -65 21 -128q39 113 134 184.5t215 71.5v-64q0 -40 34 -57q13 -7 27 -7q21 0 37 13l247 192
q25 19 25 51t-25 51l-247 193q-16 13 -37 13q-14 0 -27 -7q-34 -18 -34 -58v-64q-101 0 -186 -51.5t-134.5 -140t-49.5 -192.5z" />
    <glyph glyph-name="uniE61A" unicode="&#xe61a;" 
d="M437 308h113v75h-113v-75zM249 308h113v75h-113v-75zM249 158h113v75h-113v-75zM437 158h113v75h-113v-75zM850 721h-188v75h-75v-75h-187v75h-75v-75h-151q-46 0 -79 -33t-33 -80v-525q0 -47 33 -80t79 -33h676q47 0 80 33t33 80v525q0 47 -33 80t-80 33zM775 45h-526
q-31 -4 -53 1.5t-33.5 14.5t-17.5 27t-7 32t-1 38v262h751v-262q6 -61 -26.5 -87t-86.5 -26zM888 533v-38h-751v38q-6 33 1.5 56.5t26 35t39 16.5t45.5 5h76v-38h75v38h187v-38h75v38h113q26 0 45.5 -4.5t37 -16t25.5 -34.5t5 -58zM625 308h112v75h-112v-75zM625 158h112v75
h-112v-75z" />
    <glyph glyph-name="uniE61B" unicode="&#xe61b;" 
d="M391 342h-244q-33 0 -57 -23.5t-24 -57.5v-243q0 -34 24 -57.5t57 -23.5h244q33 0 57 23.5t24 57.5v243q0 34 -24 57.5t-57 23.5zM391 66q0 -20 -14.5 -34t-34.5 -14h-146q-20 0 -34.5 14t-14.5 34v146q0 21 14.5 35t34.5 14h146q20 0 34.5 -14t14.5 -35v-146zM877 342
h-243q-34 0 -57.5 -23.5t-23.5 -57.5v-243q0 -34 23.5 -57.5t57.5 -23.5h243q34 0 57.5 23.5t23.5 57.5v243q0 34 -23.5 57.5t-57.5 23.5zM877 66q0 -20 -14 -34t-34 -14h-146q-21 0 -35 14t-14 34v146q0 21 14 35t35 14h146q20 0 34 -14t14 -35v-146zM391 829h-244
q-33 0 -57 -24t-24 -57v-244q0 -33 24 -57t57 -24h244q33 0 57 24t24 57v244q0 33 -24 57t-57 24zM391 553q0 -20 -14.5 -34.5t-34.5 -14.5h-146q-20 0 -34.5 14.5t-14.5 34.5v146q0 20 14.5 34.5t34.5 14.5h146q20 0 34.5 -14.5t14.5 -34.5v-146zM877 829h-243
q-34 0 -57.5 -24t-23.5 -57v-244q0 -33 23.5 -57t57.5 -24h243q34 0 57.5 24t23.5 57v244q0 33 -23.5 57t-57.5 24zM877 553q0 -20 -14 -34.5t-34 -14.5h-146q-21 0 -35 14.5t-14 34.5v146q0 20 14 34.5t35 14.5h146q20 0 34 -14.5t14 -34.5v-146z" />
    <glyph glyph-name="uniE61C" unicode="&#xe61c;" 
d="M328 244q-19 0 -32.5 -13.5t-13.5 -32.5t13.5 -32.5t32.5 -13.5t32.5 13.5t13.5 32.5t-13.5 32.5t-32.5 13.5zM328 613q-19 0 -32.5 -13.5t-13.5 -32.5t13.5 -32.5t32.5 -13.5t32.5 13.5t13.5 32.5t-13.5 32.5t-32.5 13.5zM328 429q-19 0 -32.5 -13.5t-13.5 -32.5
t13.5 -32.5t32.5 -13.5t32.5 13.5t13.5 32.5t-13.5 32.5t-32.5 13.5zM743 613h-231q-19 0 -32.5 -13.5t-13.5 -32.5t13.5 -32.5t32.5 -13.5h231q19 0 32.5 13.5t13.5 32.5t-13.5 32.5t-32.5 13.5zM512 890q-103 0 -197 -40t-162 -108t-108 -162t-40 -197.5t40 -197.5
t108 -161.5t162 -108t197 -40.5t197 40.5t162 108t108.5 161.5t40.5 197.5t-40.5 197.5t-108.5 162t-162 108t-197 40zM512 -33q-113 0 -208.5 56t-151 151.5t-55.5 208t55.5 208.5t151 151.5t208.5 55.5t208.5 -55.5t151 -151.5t55.5 -208.5t-55.5 -208t-151 -151.5
t-208.5 -56zM743 429h-231q-19 0 -32.5 -13.5t-13.5 -32.5t13.5 -32.5t32.5 -13.5h231q19 0 32.5 13.5t13.5 32.5t-13.5 32.5t-32.5 13.5zM743 244h-231q-19 0 -32.5 -13.5t-13.5 -32.5t13.5 -32.5t32.5 -13.5h231q19 0 32.5 13.5t13.5 32.5t-13.5 32.5t-32.5 13.5z" />
    <glyph glyph-name="uniE61D" unicode="&#xe61d;" 
d="M630 194h-139q-19 0 -33 -13.5t-14 -33t14 -33t33 -13.5h139q19 0 33 13.5t14 33t-14 33t-33 13.5zM723 380h-232q-19 0 -33 -14t-14 -33t14 -32.5t33 -13.5h232q19 0 32.5 13.5t13.5 32.5t-13.5 33t-32.5 14zM352 605h-2q-1 17 -14.5 29t-31 12t-31 -12t-14.5 -29v-1v-4
v-4v-402h-47l93 -139l93 139h-46v411zM816 565h-325q-19 0 -33 -13.5t-14 -32.5t14 -33t33 -14h325q19 0 32.5 14t13.5 33t-13.5 32.5t-32.5 13.5zM511.5 890q-103.5 0 -197.5 -40t-162 -108t-108 -162t-40 -197.5t40 -197.5t108 -161.5t162 -108t197.5 -40.5t197.5 40.5
t162 108t108 161.5t40 197.5t-40 197.5t-108 162t-162 108t-197.5 40zM511.5 -35q-113.5 0 -209.5 56t-152 152.5t-56 209.5t56 209t152 152t209.5 56t209.5 -56t152 -152t56 -209t-56 -209.5t-152 -152.5t-209.5 -56z" />
    <glyph glyph-name="uniE61E" unicode="&#xe61e;" 
d="M512.5 892q-103.5 0 -198 -40.5t-162.5 -108.5t-108.5 -162.5t-40.5 -198t40.5 -198t108.5 -162.5t162.5 -108.5t198 -40.5t197.5 40.5t162.5 108.5t108.5 162.5t40 198t-40 198t-108.5 162.5t-162.5 108.5t-197.5 40.5zM512.5 -59q-89.5 0 -171.5 35t-141 94.5t-94 141
t-35 171t35 171.5t94 141t141 94t171.5 35t171 -35t141 -94t94.5 -141t35 -171.5t-35 -171t-94.5 -141t-141 -94.5t-171 -35zM148 413l321 -193q17 -10 42 -10t43 10l321 193q18 11 18 26t-18 26l-321 163q-18 11 -43 11t-42 -11l-321 -163q-18 -11 -18 -26t18 -26zM511 584
l298 -145l-268 -165q-12 -7 -29.5 -7t-29.5 7l-268 165zM875 319l-6 3l-315 -189q-18 -10 -43 -10t-42 10l-315 189l-6 -3q-18 -10 -18 -25.5t18 -25.5l321 -193q17 -11 42 -11t43 11l321 193q18 10 18 25.5t-18 25.5z" />
    <glyph glyph-name="uniE61F" unicode="&#xe61f;" 
d="M928 488l-69 -40q7 -35 7 -65t-7 -65l69 -40q22 -13 28 -36.5t-6 -44.5l-59 -103q-12 -22 -35.5 -28t-44.5 6l-70 40q-52 -44 -111 -65v-50q0 -25 -17 -42.5t-42 -17.5h-118q-24 0 -41.5 17.5t-17.5 42.5v50q-59 21 -110 65l-70 -40q-21 -12 -44.5 -6t-36.5 28l-59 103
q-12 21 -5.5 44.5t27.5 36.5l69 40q-6 35 -6 65t6 65l-69 40q-21 12 -27.5 36t5.5 45l59 103q13 21 36.5 27.5t44.5 -5.5l70 -41q51 45 110 66v50q0 25 17.5 42.5t41.5 17.5h118q25 0 42 -17.5t17 -42.5v-50q59 -21 111 -66l70 41q21 12 44.5 5.5t35.5 -27.5l59 -103
q12 -21 6 -45t-28 -36zM884 565l-29 52q-6 10 -18 13.5t-23 -3.5l-81 -47q-66 74 -162 94v65q0 13 -8.5 21.5t-20.5 8.5h-59q-12 0 -21 -8.5t-9 -21.5v-65q-96 -20 -161 -94l-82 47q-11 7 -22.5 3.5t-17.5 -13.5l-30 -52q-6 -11 -3 -22.5t14 -18.5l82 -47q-16 -48 -16 -94.5
t16 -93.5l-82 -48q-11 -6 -14 -18t3 -22l30 -52q6 -11 17.5 -14t22.5 3l82 48q65 -75 161 -94v-66q0 -12 9 -20.5t21 -8.5h59q12 0 20.5 8.5t8.5 20.5v66q96 19 162 94l81 -48q11 -6 23 -3t18 14l29 52q6 10 3 22t-14 18l-82 48q16 47 16 93.5t-16 94.5l82 47q11 7 14 18.5
t-3 22.5zM512 234q-61 0 -104 43.5t-43 105t43 105t104 43.5t104.5 -43.5t43.5 -105t-43.5 -105t-104.5 -43.5zM512 472q-36 0 -62 -26t-26 -63t26 -63t62.5 -26t62.5 26t26 63t-26 63t-63 26zM512 472z" />
    <glyph glyph-name="uniE620" unicode="&#xe620;" 
d="M590 13h-450v740h450v-185h72v174q0 35 -24.5 60t-58.5 25h-428q-35 0 -59 -25t-24 -60v-717q0 -36 24 -61t59 -25h428q34 0 58.5 25t24.5 61v173h-72v-185zM912 425l-156 160l-44 -45l117 -120h-352v-74h358l-123 -126l44 -45l167 171l33 34z" />
    <glyph glyph-name="uniE621" unicode="&#xe621;" 
d="M530 828q-126 0 -232.5 -53.5t-168.5 -145t-62 -199.5q0 -199 143 -314v-131q0 -47 29 -47q8 0 15.5 3t10.5 6l4 3l142 83q60 -12 119 -12q93 0 174 33t136 89t86 130.5t31 156.5q0 80 -37 154.5t-96.5 127.5t-137 84.5t-156.5 31.5zM530 80q-12 0 -53.5 3t-53.5 3l-24 6
l-17 -12l-107 -59v124l-24 18q-58 49 -88.5 118t-30.5 149q0 94 53.5 171.5t146.5 122.5t204 45q64 0 130 -26t118.5 -69.5t86 -108t33.5 -135.5q-5 -151 -111.5 -250.5t-262.5 -99.5zM304.5 478q-22.5 0 -38 -16t-15.5 -38t15.5 -37.5t38 -15.5t38 15.5t15.5 37.5t-15.5 38
t-38 16zM512 478q-22 0 -37.5 -16t-15.5 -38t15.5 -37.5t37.5 -15.5t38 15.5t16 37.5t-16 38t-38 16zM720 478q-22 0 -38 -16t-16 -38t16 -37.5t38 -15.5t37.5 15.5t15.5 37.5t-15.5 38t-37.5 16z" />
    <glyph glyph-name="uniE622" unicode="&#xe622;" 
d="M237 104.5q0 -48.5 -34 -82.5t-82.5 -34t-82.5 34t-34 82.5t34 82.5t82.5 34t82.5 -34t34 -82.5zM646 695.5q0 -48.5 -34 -82.5t-82.5 -34t-82.5 34t-34 82.5t34 82.5t82.5 34t82.5 -34t34 -82.5zM1020 104.5q0 -48.5 -34 -82.5t-82.5 -34t-82.5 34t-34 82.5t34 82.5
t82.5 34t82.5 -34t34 -82.5zM513 -144q-145 0 -262 89q-26 -25 -58 -39q139 -116 320 -116t320 116q-32 14 -58 39q-117 -89 -262 -89zM315 749q-135 -59 -218.5 -183.5t-83.5 -275.5q0 -5 0.5 -15t0.5 -11q31 17 66 23v1v2q0 125 65.5 228.5t173.5 158.5q-6 23 -6 46
q0 11 2 26zM711 749q2 -15 2 -26q0 -23 -6 -46q108 -55 173.5 -158.5t65.5 -228.5v-2v-1q35 -6 66 -23q0 1 0.5 11t0.5 15q0 152 -83.5 276t-218.5 183z" />
    <glyph glyph-name="uniE623" unicode="&#xe623;" 
d="M1002 319h-14h-10q-19 1 -28 -10q-2 5 -2 6q-4 13 -11.5 35.5t-14 41t-11.5 35.5q-7 19 -23 30.5t-36 11.5h-308q-20 0 -36 -11.5t-23 -30.5q-3 -12 -7.5 -25t-10 -29t-8.5 -25q-2 -7 -14 -42l-3 4q-7 8 -16 9q-23 1 -36 -1q-15 -1 -20 -17q-4 -15 8 -25q7 -7 17 -7h26
v-249q27 -3 49 3q36 9 36 50q0 1 -5 21h390q-4 -20 -4 -21q-1 -31 20 -44q22 -12 64 -10v250h28q11 1 18 8.5t7 17.5q-1 9 -7 16t-15 8zM513 309q9 34 23 81q4 17 17 26.5t30 9.5h237q17 0 29.5 -9.5t17.5 -25.5q3 -11 27 -94v-3h-385q4 14 4 15zM513 169q-16 0 -27.5 11
t-11.5 26.5t11 26.5t27.5 11t28 -11t11.5 -26q0 -16 -11.5 -27t-27.5 -11zM879.5 169q-16.5 0 -28 11t-11.5 26.5t11.5 26.5t28 11t28 -11t11.5 -26q0 -16 -11.5 -27t-28 -11zM369 367q0 40 17 77v4q-2 15 -2 16q2 10 9.5 17.5t19.5 7.5q4 1 7 4q36 38 86 51l16 4
q-4 2 -8 2.5t-10 0.5h-8q-15 1 -23 -9l-2 5q-5 16 -15 46.5t-15 45.5q-5 16 -18.5 25.5t-29.5 9.5h-250q-16 0 -29.5 -9.5t-18.5 -25.5q-2 -6 -13 -41q-2 -5 -20 -58q-7 11 -19 11h-21q-10 0 -16 -6q-9 -10 -4 -21q5 -13 19 -14h22v-204q20 -2 39 2q26 7 29 33q3 14 -4 26
h262zM116 535q15 57 20 73q8 30 40 30h191q14 0 24 -7.5t14 -20.5q3 -10 22 -77v-2h-312q0 4 1 4zM85.5 458.5q-0.5 12.5 9 22t22.5 9.5t22.5 -9t10 -21.5t-9 -21.5t-22.5 -10q-13 0 -22.5 9t-10 21.5zM602.5 560.5q11.5 0.5 17.5 12.5q4 9 54 114q15 30 16 33
q4 10 -0.5 18.5t-14.5 9.5q-1 1 -12 1q-16 -1 -17 -1q-13 -2 -27 -6q-6 -1 -7 -7q-9 -44 -17 -83q-6 -29 -14 -66q-2 -9 3 -16q7 -10 18.5 -9.5zM642 528q-7 -10 -1 -21q5 -11 17 -11q10 0 17 7q12 13 26 27t30.5 31.5t25.5 26.5q2 3 3 4q7 9 3 19.5t-15 12.5t-20 -7
l-83 -86q-2 -1 -3 -3zM492 629q14 -52 16 -62q5 -16 20 -16q11 0 17 8t3 18q-7 29 -31 118q-3 10 -12 14q-11 4 -21 -3q-10 -8 -7 -21q2 -6 15 -56z" />
    <glyph glyph-name="uniE624" unicode="&#xe624;" 
d="M542 708h-67l-6 -133h80zM552 509h-86l-12 -266h110zM451 176l-13 -266h141l-12 266h-116zM172 612q-16 -45 -71 -253t-72 -263q-28 -87 -9 -134.5t86 -47.5h168l128 795h-128q-24 -1 -35.5 -4t-24.5 -12.5t-22 -28t-20 -52.5zM997 83q-10 32 -64.5 254t-67.5 263
q-18 58 -55.5 83.5t-93.5 25.5h-104l129 -795h201q30 0 47.5 17t20.5 44t-0.5 54.5t-12.5 53.5z" />
    <glyph glyph-name="uniE625" unicode="&#xe625;" 
d="M736 -83v306q0 13 -9.5 22t-23 9t-22.5 -9t-9 -22v-306h-385v107h-16q-33 0 -56.5 22.5t-23.5 54.5v137v92v15h2q6 27 28 44.5t50 17.5h283l-240 -378q7 -1 18.5 -1.5t45.5 3.5t65 14.5t70 37t68.5 65.5t53 106t29.5 153h88q33 0 56.5 -22.5t23.5 -54.5v-413h-96z
M336 254h-48v-92h48v92zM509 440q-53 0 -90 35.5t-37 85.5t37 85.5t89.5 35.5t90 -35.5t37.5 -85.5t-37.5 -85.5t-89.5 -35.5z" />
    <glyph glyph-name="uniE626" unicode="&#xe626;" 
d="M829 700q-86 86 -201.5 116.5t-231 0t-201.5 -116.5t-116.5 -201.5t0 -231t116.5 -201.5t201.5 -117t231 0t201.5 117t117 201.5t0 231t-117 201.5zM750 621q88 -88 97.5 -211.5t-61.5 -221.5l-469 469q98 71 221.5 61t211.5 -97zM274 145q-87 88 -97 211.5t61 221.5
l469 -469q-98 -71 -221.5 -61.5t-211.5 97.5z" />
    <glyph glyph-name="uniE627" unicode="&#xe627;" 
d="M401 494h-112v-334h112v334zM624 828h-112v-668h112v668zM846 661h-111v-501h111v501zM178 49v779h-111v-891h891v112h-780z" />
    <glyph glyph-name="uniE628" unicode="&#xe628;" 
d="M919 0v180h-91l78 136h13v200l-38 -65h-156l183 316h11h45v-173v-278v-136v-180h-45zM464 451l184 316h156l-183 -316h-157zM204 451l184 316h156l-184 -316h-156zM106 282l20 34h156l-79 -136h-97v-180h-45v180v24v247v201v115h45v-37l21 37h157l-178 -306v-179z
M542 316l-79 -136h-156l79 136h156zM802 316l-78 -136h-157l79 136h156z" />
    <glyph glyph-name="uniE629" unicode="&#xe629;" 
d="M266 723q9 -7 22 -22q19 -21 40 -53q39 -57 49 -87q-1 -7 -11 -23q-24 -40 -24 -72q0 -48 97 -145q38 -37 71 -62q44 -34 72.5 -34t70.5 22q25 13 35 14q26 -8 91 -53q32 -22 56 -43q14 -12 22 -21q-4 -34 -35 -63q-36 -33 -70 -33q-75 0 -179 60q-100 58 -197 155
q-95 94 -153 192q-29 48 -44 90q-15 41 -15 72q0 13 11 30q11 20 32 38q19 18 40 29q11 6 19 9zM271 769q-38 0 -95 -50.5t-57 -101.5t30.5 -118.5t80 -134.5t115.5 -133t135 -116t141 -81t131 -31q52 0 101.5 46.5t49.5 104.5q0 13 -45 50.5t-97.5 69.5t-71.5 32
q-21 0 -55 -18t-51.5 -18t-65.5 40.5t-89 88.5t-41 67t17.5 48.5t17.5 49.5q0 15 -28 64.5t-65.5 95t-57.5 45.5z" />
    <glyph glyph-name="uniE62A" unicode="&#xe62a;" 
d="M713 788h-550q-4 0 -10 -1t-22 -7t-28.5 -15.5t-24.5 -28.5t-15 -43v-662q0 -4 1 -10t6.5 -22t15 -28.5t30.5 -22.5t50 -10h706q4 0 9.5 1t20 6t26 13.5t21.5 26.5t12 42v557l-98 -96v-450h-700v650l478 3l66 90zM833 788l96 -74l19 26q15 20 0 44q-14 24 -37 37
q-4 2 -9.5 4t-20 2t-23.5 -10zM898 674l-162 -166q-14 -27 -39 -39l-72 -35q-1 0 -2.5 -0.5t-5 -1t-6.5 1t-5.5 6t-4.5 11.5l13 80q-1 14 18 40l172 178zM274 386h475q1 -1 4 -0.5t6.5 -3t3.5 -10.5v-77l-2 -2q-1 -1 -5.5 -2.5t-12.5 -0.5l-464 -1q-15 0 -16 9v81l1 1
q1 2 3.5 4t6.5 2zM274 236h475q1 -1 4 -0.5t6.5 -3t3.5 -10.5v-77l-2 -2q-1 -1 -5.5 -2.5t-12.5 -1.5h-464q-15 0 -16 9v81q2 7 11 7z" />
    <glyph glyph-name="uniE62B" unicode="&#xe62b;" 
d="M568 415q-31 28 -54 28q-25 0 -56 -28q-8 -8 -280 -254v-188q0 -13 9 -22t21 -9h174q6 0 10.5 4.5t4.5 10.5v135q0 7 4.5 11.5t11.5 4.5h195q6 0 10.5 -4.5t4.5 -11.5v-134q0 -7 4.5 -11.5t10.5 -4.5h177q13 0 22 9t9 22v187q-270 247 -278 255zM960.5 248.5
q-0.5 21.5 -19.5 38.5l-22 22q-17 17 -42 40t-55 52t-61 59q-32 30 -62 59q-29 27 -55 52q-23 22 -42 39q-16 17 -22 21q-28 27 -67 26.5t-73 -33.5q-5 -5 -32 -29q-27 -25 -65 -60.5t-82 -75.5q-41 -38 -83 -76q-37 -34 -66 -61q-27 -25 -33 -30q-14 -14 -15 -36.5
t17 -37.5q16 -14 38.5 -13.5t35.5 11.5q5 3 27 23q22 21 52 48q30 28 66 61q35 32 68 62q31 29 56 53q24 22 34 30q27 24 54.5 25t56.5 -25q6 -5 29 -27q24 -23 55 -52q33 -31 69 -64q37 -35 68 -63q39 -37 54 -51q23 -21 27 -25q14 -11 36 -12t39 14q15 14 14.5 35.5z" />
    <glyph glyph-name="uniE62C" unicode="&#xe62c;" 
d="M493 589q0 44 -27.5 79t-71.5 49q-5 1 -12 -25t-12 -53l-5 -27v119q0 7 -4.5 11.5t-11.5 4.5h-23q-7 0 -11.5 -4.5t-4.5 -11.5v-119q-1 6 -3.5 17.5t-7.5 35t-10 38.5t-8 14q-44 -14 -71.5 -49t-27.5 -79q0 -5 -6 -7t-12.5 -3.5t-12 -14t-5.5 -34.5h383q0 22 -5.5 34.5
t-12 14.5t-12.5 3.5t-6 6.5zM380 -18v-52h117v52q0 45 32 77q6 6 12 10v129q-54 -16 -94 -56q-67 -67 -67 -160zM961 -70v52q0 93 -66 160q-44 43 -104 59v50h-40v31h-52v49h129q11 0 18.5 7.5t7.5 18.5t-7.5 18.5t-18.5 7.5h-129v24h-56v-24h-125q-10 0 -18 -7.5t-8 -18.5
t8 -18.5t18 -7.5h125v-49h-43v-31h-44v-211h235v35q11 -7 21 -16q32 -32 32 -77v-52h117zM481 265q-28 13 -55 22q-5 1 -9 5t-9 18t4 36q32 33 47.5 66.5t15.5 89.5h-274q0 -57 15.5 -90.5t46.5 -65.5q9 -20 3.5 -33.5t-11 -18.5t-10.5 -7q-72 -26 -125.5 -63.5t-53.5 -74.5
v-20q0 -88 262 -89q0 1 -0.5 4.5t-0.5 5.5q1 68 42.5 125t111.5 90z" />
    <glyph glyph-name="uniE62D" unicode="&#xe62d;" 
d="M646 328h-2q-8 42 -45 70t-86 28t-86 -28t-45 -70h-2v-137h-320v168h163q32 91 111.5 154.5t178.5 63.5t179.5 -63.5t111.5 -154.5h162v-168h-320v137z" />
    <glyph glyph-name="uniE62E" unicode="&#xe62e;" 
d="M601 364l3 3q18 19 12 43l-28 104q-8 25 -32 31l-104 28q-18 5 -35 -5l114 -114l-90 -90l-114 115q-10 -17 -6 -36l28 -104q7 -25 32 -31l103 -28q25 -7 43 12l26 25zM533 411l33 -34l-9 -10l-34 34zM518 329l-34 34l10 9l34 -34zM537 348l-33 33l9 10l34 -34zM613 355
l-73 -72l90 -91q44 32 72 74zM958 315v148l-101 30q-11 37 -25 63l52 94l-104 105l-95 -52q-25 14 -62 25l-30 103h-149l-30 -103q-35 -10 -62 -25l-95 52l-105 -105l52 -94q-2 -5 -10 -19t-13 -24t-8 -20l-109 -30v-148l109 -30q6 -21 28 -63l-50 -94l106 -105l94 52
q51 -27 63 -31l30 -108h149l30 108q22 7 62 28l95 -50l105 105l-52 95q11 22 24 63zM518.5 113q-114.5 0 -195 81t-80.5 195t80.5 195t195 81t195 -81t80.5 -195t-80.5 -195t-195 -81z" />
    <glyph glyph-name="uniE62F" unicode="&#xe62f;" 
d="M557 -8l-5 21q-60 193 -136 345q123 335 149 370q8 11 18.5 21t25.5 18t30.5 9.5t34.5 -7.5t37.5 -28.5t38.5 -57.5t38 -91q49 -145 91.5 -295.5t60.5 -226t18 -78.5h-401zM720 632q-27 63 -51.5 84.5t-50.5 6.5q-16 -9 -37.5 -64t-35.5 -106l-14 -50q31 25 59 27
q12 1 28 -11t27 -24l10 -13q2 7 6.5 17t17 26.5t23.5 15.5q7 0 17 -4t18.5 -8.5t16.5 -9.5t12 -8l5 -3q-15 38 -51 124zM506 -8l-441 2q94 232 122 311q77 212 158 88q34 -50 69.5 -134t54.5 -139.5t19 -57.5zM327 322q-27 64 -55 48q-8 -4 -19.5 -33.5t-18.5 -57.5l-8 -27
q17 14 31 15q7 1 15.5 -5.5t14.5 -13.5l5 -6q2 3 4 8.5t8.5 14.5t13 8.5t15.5 -5t15 -8.5l6 -4q-8 20 -27 66z" />
    <glyph glyph-name="uniE630" unicode="&#xe630;" 
d="M494 236l3 -103q17 -2 20 -2t7 0.5t5 0.5l2 95q-2 1 -5.5 1.5t-5.5 1.5q-8 2 -26 6zM423 357q-1 -12 7 -22q3 -5 9 -9l3 62q-18 -14 -19 -31zM510 405h-5q-2 0 -5 -0.5t-5 -0.5l-1 -97l24 -6q1 0 5.5 -1.5t7.5 -1.5l-1 105q-17 2 -20 2zM754 526q-15 14 -51.5 39
t-63.5 46.5t-32 33.5q-1 3 -2 7q15 2 15 12q0 5 -5 8.5t-13 3.5h-1q1 11 21 44t34 79q-31 9 -50.5 12.5t-36 0.5t-25.5 -7t-30 -16t-38 -20q-19 -4 -34.5 4.5t-24 19t-27 14.5t-43.5 -9q21 -40 47 -75t29 -47q-15 -1 -15 -11.5t15 -12.5l-1 -3q-4 -13 -31.5 -34.5t-66 -47.5
t-54.5 -41q-20 -18 -44 -57t-44.5 -90.5t-35 -107.5t-13 -110t18 -98t62.5 -72t116 -31l182 -5q21 0 182 5q70 3 116 31t62.5 72t18 98t-13 110t-35 107.5t-44.5 90.5t-44 57zM665 194q-3 -27 -22 -51q-19 -22 -52 -36q-3 -1 -9 -2.5t-7 -2.5l-2 -33q-1 -7 -7.5 -12
t-15.5 -5t-15.5 4.5t-6.5 11.5v27q-1 0 -4.5 -0.5t-5.5 -0.5q-8 0 -20 1l1 -27q0 -7 -6.5 -11.5t-15.5 -4.5t-16 5.5t-7 11.5l-3 34q-23 7 -38 17q-35 26 -51 80q-2 11 5.5 18.5t18.5 6.5q12 -1 21.5 -10t10.5 -21q6 -26 29 -43l-7 102q-15 5 -24 10q-27 13 -39 36
q-12 22 -11 47q2 24 13.5 43.5t31.5 33.5q12 9 35 17l4 36q0 8 7.5 13.5t17 6t16 -4.5t6.5 -12l-1 -30h5h5q6 0 23 -1v31q0 7 6.5 12t16.5 4.5t17 -6t8 -12.5l3 -39q1 0 2 -0.5t2 -0.5q33 -13 50 -33q15 -19 24 -58q1 -12 -7 -20.5t-20 -7.5q-13 0 -22.5 9t-9.5 22
q-3 15 -15 28l3 -95q21 -6 32 -11q25 -10 37 -30t9 -47zM589 211q-1 0 -5 2l-5 -68l1 1h2q21 16 23 36q2 19 -16 29z" />
    <glyph glyph-name="uniE631" unicode="&#xe631;" horiz-adv-x="1027" 
d="M863 350q-56 8 -112 11q-106 7 -212 0q-25 -1 -53 -4t-43 -5l-16 -2l-53 -137l-36 -34v-132l34 -37h11v-58q5 -9 12 -11q3 -1 20.5 -1.5t33.5 1.5q7 1 12 11v58h370v-58l1 -2l4 -4l3 -3q2 -2 5 -2q15 -2 32 -1.5t22 1.5q2 1 5 3.5t4 5.5l2 2v58h11l34 37v132l-36 34z
M482 92h-102q-9 0 -9 9v56q0 9 9 9h90q7 0 9 -9l13 -56q0 -4 -3 -6.5t-7 -2.5zM399 208l49 118q127 10 198 10t198 -10l47 -118q-134 5 -246 5t-246 -5zM920 157v-56q0 -9 -9 -9h-101q-5 0 -7.5 3t-1.5 6l12 56q2 9 9 9h90q8 0 8 -9zM389 363q9 23 34 27q51 8 113 11
q77 4 141 2v19l-36 34l-53 138q-56 8 -112 11q-106 7 -212 0q-25 -1 -53 -4t-43 -5l-16 -2l-53 -137l-36 -34v-131l34 -38h11v-57q5 -9 12 -11q3 -2 20.5 -2.5t33.5 2.5q7 1 12 11v57h161zM173 572q126 10 197.5 10t197.5 -10l49 -118q-135 6 -246.5 6t-246.5 -6zM208 338
h-102q-9 0 -9 9v56q0 9 9 9h90q7 0 9 -9l13 -56q0 -9 -10 -9zM478 639q25 -2 53 -4.5t45 -4.5l16 -2q19 -2 25 -21l45 -118h166v-58l1 -2q1 -2 2.5 -3.5t4 -3.5t4.5 -2q15 -2 32 -1.5t22 1.5q3 1 5.5 4t4.5 5l2 2v58h11l34 37v132l-36 34l-52 137q-56 8 -112 12
q-106 7 -212 0q-25 -2 -53 -4.5t-43 -4.5l-16 -3l-53 -137l-36 -34v-17q64 2 140 -2zM920 638v-57q0 -4 -2.5 -6.5t-6.5 -2.5h-101q-5 0 -7.5 3t-1.5 6l12 57q1 3 3.5 6t5.5 3h90q3 0 5.5 -3t2.5 -6zM447 807q126 9 197.5 9t197.5 -9l49 -120q-246 11 -493 0z" />
    <glyph glyph-name="uniE632" unicode="&#xe632;" 
d="M109 547l-113 -108l111 -111v74h74v-221h73v294h-147zM402 475h73v-294h74v294h74l-111 148zM1028 439l-110 107v-71h-148v-294h74v221h74v-74zM328 70h37v627h-37v-627zM660 70h36v627h-36v-627z" />
    <glyph glyph-name="uniE633" unicode="&#xe633;" 
d="M945 430q-18 -28 -49.5 -72.5t-60.5 -84.5t-34 -48q-1 -6 0.5 -95.5t-0.5 -127.5q-3 -45 -27 -57q-22 -11 -53 -2q-76 22 -216 66q-146 -45 -221 -66q-2 0 -10 -3.5t-10 -3t-8 1.5q-31 24 -32 64q-2 35 -1 128t1 95q-4 6 -65.5 90.5t-84.5 121.5q-17 26 -8 58q9 33 41 45
q71 28 214 79q88 117 139 182q12 15 26 22q22 11 45.5 4.5t39.5 -27.5q47 -63 133 -182q136 -50 209 -78q36 -15 46 -44q9 -31 -14 -66zM865 480q-184 62 -199 66q-1 0 -23 31t-55.5 77t-54.5 74q-12 15 -24 9q-6 -3 -10 -9q-22 -28 -59.5 -75t-63 -78t-24.5 -31
q-9 -9 -35 -17t-73 -20.5t-85 -26.5q-8 -9 -10.5 -13.5t-1.5 -6t5.5 -5t6.5 -7.5q129 -174 129 -191v-7q-1 -6 -1 -17v-25v-32v-36v-38q0 -19 1 -36q0 -4 -1 -12t-1 -12.5t2 -7.5q6 -5 22 -1q16 5 34.5 11t35.5 12l36 12q17 6 32 11.5t26 10t18 6.5l7 3q7 2 14 0l6 -3
q6 -2 17 -6.5t25 -10t31 -11.5t34.5 -12t36 -12t33.5 -11q8 -2 11 -4q1 -1 1 0q28 -5 29 5q2 39 1 97t-2.5 85t1.5 41l3 5q2 4 7 12t12 18.5t15.5 23t17 26t18.5 28t19 28t18.5 27t17.5 24t8 19.5t-8 12zM422 204h45v272h-45v45h45h45h45v-317h46v-45h-181v45z" />
    <glyph glyph-name="uniE634" unicode="&#xe634;" 
d="M855 455q-19 0 -50 -7t-31 -18v-332q0 -47 -47 -47h-520q-47 0 -47 47v569q0 48 47 48l443 4q12 0 20.5 8.5t8.5 20.5q0 13 -17.5 37.5t-28.5 24.5h-473q-48 0 -71 -23.5t-23 -71.5v-642q0 -48 34 -82.5t83 -34.5h584q102 0 102 95v379v6v5q0 1 -0.5 4t-1 3.5t-1.5 2.5
t-2.5 2.5t-3.5 1t-5 0.5zM539 549q0 9 -8 16t-20 7h-228q-12 0 -20 -6.5t-8 -16.5t8.5 -17t19.5 -7q-12 0 -20 -7t-8 -17q0 -9 8.5 -16t19.5 -7h228q12 0 20 6.5t8 16.5t-8 17t-20 7q12 0 20 7t8 17zM729 311.5q0 9.5 -9 16.5t-21 7h-414q-12 0 -21 -7t-9 -16.5t9 -16.5
t21 -7q-12 0 -21 -7t-9 -17t9 -17t21 -7h414q12 0 21 7t9 17t-9 17t-21 7q12 0 21 7t9 16.5zM944 776q-14 14 -33.5 14t-33.5 -14l-221 -221q-14 -14 -14 -33.5t14 -33.5t33.5 -14t33.5 14l221 221q14 14 14 33.5t-14 33.5z" />
    <glyph glyph-name="uniE635" unicode="&#xe635;" 
d="M110 785v-804q0 -21 15 -35.5t35 -14.5h51v904h-51q-20 0 -35 -14.5t-15 -35.5zM864 835h-50v-904h50q21 0 35.5 14.5t14.5 35.5v804q0 21 -14.5 35.5t-35.5 14.5zM311 -69h402v904h-402v-904zM462 785h100v-151h-100v151zM462 483h100v-150h-100v150zM462 182h100v-151
h-100v151z" />
    <glyph glyph-name="uniE636" unicode="&#xe636;" 
d="M214 379q14 -53 46 -99q28 -44 67.5 -90t76 -80.5t70 -63t53.5 -43.5l20 -15q8 6 21.5 16.5t51.5 43.5t72.5 66.5t75 82t67.5 93.5q12 19 22 40q33 68 32 125q0 90 -46 166.5t-124.5 121t-171.5 44.5h-1v0h-2q-92 0 -170.5 -43.5t-124 -119t-45.5 -163.5q0 -14 1 -29
q1 -25 9 -53zM547 647q82 0 139.5 -56t57.5 -135t-57.5 -135t-139.5 -56t-139.5 56t-57.5 135t57.5 135t139.5 56zM541 -12q104 0 177 -22t73 -53t-73 -52.5t-176.5 -21.5t-176.5 21.5t-73 52.5t73 53t176 22q-144 0 -246.5 -29t-102.5 -70.5t102.5 -70.5t247 -29t247 29
t102.5 70.5t-102.5 70.5t-247.5 29z" />
    <glyph glyph-name="uniE637" unicode="&#xe637;" 
d="M877 810h-584q-60 0 -103 -42.5t-43 -102.5v-73q0 -30 21.5 -51.5t52 -21.5t51.5 21.5t21 51.5t21.5 51.5t51.5 21.5h438q30 0 51.5 -21.5t21.5 -51.5v-584q0 -30 -21.5 -51.5t-51.5 -21.5h-438q-30 0 -51.5 21.5t-21.5 52t-21 51.5t-51.5 21t-52 -21t-21.5 -52v-73
q0 -60 43 -102.5t103 -42.5h584q60 0 102.5 42.5t42.5 102.5v730q0 60 -42.5 102.5t-102.5 42.5zM445 81h-2h2zM439 81h1v0q1 0 2.5 0.5t2.5 0.5v-1q35 2 54 21l137 144q22 22 22 53.5t-22 54.5l-137 143q-22 22 -60 22v-146l-365 1q-30 0 -51 -21.5t-21 -51.5t21 -51.5
t51 -21.5l365 -1v-146z" />
    <glyph glyph-name="uniE638" unicode="&#xe638;" 
d="M941 -207h-858q-32 0 -55 23t-23 55v741q0 32 23 55t55 23h78v-117q-16 0 -27.5 -11.5t-11.5 -27.5v-585q0 -16 11.5 -27.5t27.5 -11.5h702q16 0 27.5 11.5t11.5 27.5v585q0 16 -11.5 27.5t-27.5 11.5v117h78q32 0 55 -23t23 -55v-741q0 -32 -23 -55t-55 -23zM765.5 573
q-24.5 0 -41.5 17t-17 41v117q0 24 17 41.5t41.5 17.5t41.5 -17.5t17 -41.5v-117q0 -24 -17 -41t-41.5 -17zM356 690h312v-117h-312v117zM300 183h271q24 0 41 -17t17 -41.5t-17 -41.5t-41 -17h-271q-24 0 -41 17t-17 41.5t17 41.5t41 17zM298 417h428q25 0 42 -17t17 -41.5
t-17 -41.5t-42 -17h-428q-25 0 -42 17t-17 41.5t17 41.5t42 17zM258.5 573q-24.5 0 -41.5 17t-17 41v117q0 24 17 41.5t41.5 17.5t41.5 -17.5t17 -41.5v-117q0 -24 -17 -41t-41.5 -17z" />
    <glyph glyph-name="uniE639" unicode="&#xe639;" 
d="M922 143h-351v-312q0 -16 -11.5 -27.5t-27.5 -11.5h-40q-16 0 -27.5 11.5t-11.5 27.5v312h-351q-16 0 -27.5 11.5t-11.5 27.5v39q0 17 11.5 28t27.5 11h351v118h-273q-16 0 -27.5 11.5t-11.5 27.5v39q0 16 11.5 27.5t27.5 11.5h272l-223 223q-11 11 -11 26.5t11 26.5
l26 26q11 11 26.5 11t26.5 -11l204 -203l203 202q11 11 26.5 11t25.5 -11l27 -26q11 -11 11 -26.5t-11 -26.5l-222 -222h272q16 0 27.5 -11.5t11.5 -27.5v-39q0 -16 -11.5 -27.5t-27.5 -11.5h-273v-118h351q16 0 27.5 -11t11.5 -28v-39q0 -16 -11.5 -27.5t-27.5 -11.5z" />
    <glyph glyph-name="uniE63A" unicode="&#xe63a;" 
d="M989 -147h-626h-60v536h-268q-12 0 -21 9t-9 21v298q0 13 9 21.5t21 8.5h298q13 0 21.5 -8.5t8.5 -21.5v-30v-268v-506h626q12 0 21 -9t9 -21.5t-9 -21t-21 -8.5zM303 687h-238v-238h238v238zM125 658h119q12 0 21 -9t9 -21t-9 -21t-21 -9h-30v-89q0 -13 -9 -21.5
t-21 -8.5t-21 8.5t-9 21.5v89h-29q-13 0 -21.5 9t-8.5 21t8.5 21t21.5 9zM929.5 -28q-24.5 0 -42 17.5t-17.5 42t17.5 42t42 17.5t42 -17.5t17.5 -42t-17.5 -42t-42 -17.5zM959 121h-268q-13 0 -21.5 9t-8.5 21v89q0 13 8.5 21.5t21.5 8.5h268q12 0 21 -8.5t9 -21.5v-89
q0 -12 -9 -21t-21 -9zM780 91q25 0 40 -14t18.5 -27.5t1.5 -17.5h-119q-26 0 -41.5 15t-18.5 29.5t0 14.5h119zM959 300h-268q-13 0 -21.5 8.5t-8.5 21.5v89q0 13 8.5 21.5t21.5 8.5h268q12 0 21 -8.5t9 -21.5v-89q0 -13 -9 -21.5t-21 -8.5zM601 31.5q0 -24.5 -17.5 -42
t-42 -17.5t-42 17.5t-17.5 42t17.5 42t42 17.5t42 -17.5t17.5 -42zM601 121h-59q-35 0 -60.5 -23.5t-28.5 -57.5q-30 17 -30 51v60q0 2 -0.5 9t-0.5 12.5t1 8.5q-1 10 3 19l58 109q5 15 20 19l1 1h1l2 1h4h89q13 0 21.5 -9t8.5 -21v-149q0 -12 -8.5 -21t-21.5 -9zM572 270
h-39l-32 -59l-18 -34q2 -11 10 -18.5t19 -7.5h60v119z" />
    <glyph glyph-name="uniE63B" unicode="&#xe63b;" 
d="M551 184h-271v-329q0 -24 -17 -41t-41 -17t-41 17t-17 41v890q0 18 11 35t28 23h116h38h194q128 0 218.5 -91t90.5 -219t-90.5 -218.5t-218.5 -90.5zM589 687h-309v-387h309q62 0 108.5 63t46.5 130.5t-46.5 130.5t-108.5 63z" />
    <glyph glyph-name="uniE63C" unicode="&#xe63c;" 
d="M512 766q-103 0 -196.5 -40t-161 -107.5t-107.5 -161t-40 -196.5v-427h116v427q0 106 52 195.5t141.5 141.5t195.5 52t195.5 -52t141.5 -141.5t52 -195.5v-427h116v427q0 103 -40 196.5t-107.5 161t-161 107.5t-196.5 40zM512 300q-64 0 -109.5 -45.5t-45.5 -109.5v-117
q0 -18 5 -39h300q5 21 5 39v117q0 64 -45.5 109.5t-109.5 45.5z" />
    <glyph glyph-name="uniE63D" unicode="&#xe63d;" 
d="M988 -17h-32h-86q-39 112 -137.5 183t-221 71t-220.5 -71t-138 -183h-85h-32q-13 0 -22 9t-9 23v31v317q0 27 18.5 45.5t44.5 18.5h32v127h-64q-13 0 -22 9t-9 22.5t9 22.5t22 9h952q13 0 22 -9t9 -22.5t-9 -22.5t-22 -9h-64v-127h32q26 0 44.5 -18.5t18.5 -45.5v-317
v-31q0 -14 -9 -23t-22 -9zM290 554h-127v-127h127v127zM480 554h-127v-127h127v127zM671 554h-127v-127h127v127zM861 554h-127v-127h127v127z" />
    <glyph glyph-name="uniE63E" unicode="&#xe63e;" 
d="M512.5 749q-91.5 0 -175 -36t-143.5 -96t-96 -143.5t-36 -175t36 -174.5t96 -143.5t143.5 -96t175 -35.5t174.5 35.5t143.5 96t96 143.5t35.5 174.5t-35.5 175t-96 143.5t-143.5 96t-174.5 36zM512 29q-112 0 -191 79t-79 191t79 191t191 79t191 -79t79 -191t-79 -191
t-191 -79z" />
    <glyph glyph-name="uniE63F" unicode="&#xe63f;" 
d="M511.5 660q-94.5 0 -162 -67.5t-67.5 -162.5t67.5 -162t162 -67t162 67t67.5 162t-67.5 162.5t-162 67.5zM511.5 286q-59.5 0 -101.5 42.5t-42 102t42 101.5t101.5 42t101.5 -42t42 -101.5t-42 -102t-101.5 -42.5zM897 640q-32 75 -90 133q-57 58 -133 90
q-77 33 -162.5 33t-163.5 -33q-74 -32 -132 -90t-90 -133q-33 -77 -33 -162.5t33 -162.5q31 -75 90 -133q57 -58 133 -90q9 -4 21 -9l-51 -126h-8q-18 0 -30.5 -12.5t-12.5 -30t12.5 -30t30.5 -12.5h370h1h38q17 0 29.5 12.5t12.5 30t-12.5 30t-29.5 12.5h-10l-50 129
q32 12 61 29q95 55 151 150q58 98 58 212q0 86 -33 163zM845 477q0 -91 -46 -168q-45 -76 -121 -120q-77 -45 -167 -45q-138 0 -235.5 97.5t-97.5 235.5t97.5 236t235.5 98t236 -98q98 -97 98 -236zM619 -42h-208l42 105q29 -4 58 -4q34 0 66 5zM512.5 671q27.5 0 47 19.5
t19.5 46.5t-19.5 46.5t-47 19.5t-46.5 -19.5t-19 -46.5t19 -46.5t46.5 -19.5zM513 739q2 0 2 -2t-2 -2t-2 2t2 2z" />
    <glyph glyph-name="uniE640" unicode="&#xe640;" 
d="M906 182v-236h-788v236h788zM39 674v-79h-39v79h39zM39 556v-79h-39v79h39zM39 438v-79h-39v79h39zM39 320v-79h-39v79h39zM39 202v-79h-39v79h39zM39 83v-78h-39v78h39zM39 -35v-79h-39v79h39zM1024 -35v-79h-39v79h39zM1024 83v-78h-39v78h39zM1024 202v-79h-39v79h39z
M1024 320v-79h-39v79h39zM1024 438v-79h-39v79h39zM1024 556v-79h-39v79h39zM1024 674v-79h-39v79h39zM39 714h-39v98h39v-98zM138 773h-79v39h79v-39zM256 773h-79v39h79v-39zM374 773h-79v39h79v-39zM492 773h-78v39h78v-39zM610 773h-78v39h78v-39zM729 773h-79v39h79
v-39zM847 773h-79v39h79v-39zM965 773h-79v39h79v-39zM1024 714h-39v98h39v-98zM985 -153h39v-59h-39v59zM886 -173h79v-39h-79v39zM768 -173h79v-39h-79v39zM650 -173h79v-39h-79v39zM532 -173h78v-39h-78v39zM414 -173h78v-39h-78v39zM295 -173h79v-39h-79v39zM177 -173
h79v-39h-79v39zM59 -173h79v-39h-79v39zM0 -153h39v-59h-39v59zM83 421q47 72 64 151h-61v29h64v83h30v-83h57v-29h-57v-75l18 19q27 -23 48 -44l-23 -24q-20 23 -43 47v-224h-30v229q-22 -72 -53 -117q-6 19 -14 38zM276 465l32 -13q-35 -77 -69 -137q-13 8 -31 15
q34 55 68 135zM237 535h264v-30h-117v-177q0 -52 -48 -52q-22 -1 -57 0q-2 15 -6 35q30 -3 54 -3q25 0 25 31v166h-115v30zM256 659h225v-30h-225v30zM412 451l30 14q40 -77 67 -135l-34 -15q-27 66 -63 136zM517 306q31 42 33 129h30q-2 -25 -5 -50q16 -28 40 -46v116h-95
v27h196v-27h-73v-45h68v-27h-68v-59q28 -11 65 -12q74 -5 230 2q-5 -14 -12 -33q-152 -4 -218 1q-94 3 -139 67q-11 -48 -33 -83q-9 21 -19 40zM547 667h149v-163h-28v13h-93v-13h-28v163zM668 641h-93v-37h93v37zM575 542h93v37h-93v-37zM805 542h28v-53q0 -41 -8 -71
q65 -47 96 -73l-23 -23q-34 32 -84 69q-2 -4 -5 -9q-25 -40 -86 -64q-10 12 -23 25q59 19 82 52q23 32 23 96v51zM732 588h61q5 26 7 48h-84v28h213v-28h-97q-4 -25 -9 -48h83v-180h-28v152h-118v-152h-28v180z" />
    <glyph glyph-name="uniE641" unicode="&#xe641;" 
d="M512 300zM64 300q0 185 131.5 316.5t316.5 131.5t316.5 -131.5t131.5 -316.5t-131.5 -316.5t-316.5 -131.5t-316.5 131.5t-131.5 316.5z" />
    <glyph glyph-name="uniE642" unicode="&#xe642;" 
d="M574 51q39 31 75.5 64t83 82t80.5 95t57.5 100t23.5 101q0 109 -51.5 201.5t-139.5 146t-191.5 53.5t-191.5 -53.5t-139.5 -146t-51.5 -201.5q0 -47 23.5 -101t57.5 -100t80.5 -95t83 -82t75.5 -64q-95 -7 -165 -31.5t-70 -55.5q0 -36 94 -62.5t203.5 -26.5t203.5 26.5
t94 62.5q0 31 -70 55.5t-165 31.5zM214 493q0 129 87 220.5t210.5 91.5t210.5 -91.5t87 -220.5q0 -127 -201 -287q-53 -42 -96 -69q-7 4 -17.5 11t-41.5 29.5t-59 45.5t-62.5 57.5t-59 67t-41.5 71.5t-17 74zM511.5 -36q-74.5 0 -143.5 13.5t-69 31.5q0 14 44.5 25.5
t105.5 16.5l63 -48q25 18 62 48q61 -5 105.5 -16.5t44.5 -25.5q0 -18 -69 -31.5t-143.5 -13.5zM639 534.5q0 55.5 -37.5 94.5t-90 39t-90 -39t-37.5 -94.5t37.5 -94.5t90 -39t90 39t37.5 94.5zM469 534.5q0 18.5 12.5 31.5t30 13t30 -13t12.5 -31.5t-12.5 -31.5t-30 -13
t-30 13t-12.5 31.5z" />
    <glyph glyph-name="uniE643" unicode="&#xe643;" 
d="M945 824h-867q-31 0 -52.5 -22t-21.5 -53v-525q0 -32 21.5 -54t52.5 -22h356l-82 -203l234 203h359q31 0 52.5 22t21.5 54v525q0 31 -22 53t-52 22z" />
    <glyph glyph-name="uniE644" unicode="&#xe644;" 
d="M1017 468q0 99 -67.5 182.5t-184 131.5t-254 48t-254 -48t-184 -131.5t-67.5 -182.5q0 -127 110 -225.5t278 -126.5q-36 -131 -95 -177q111 -1 243 168q131 5 240 54.5t172 130.5t63 176z" />
    <glyph glyph-name="uniE645" unicode="&#xe645;" 
d="M759 185l-495 693h-198v-990h198v693l495 -693h198v990h-198v-693z" />
    <glyph glyph-name="uniE646" unicode="&#xe646;" 
d="M603 164q0 20 -14 34.5t-35 14.5q-20 0 -34 -14.5t-14 -34.5t14 -34.5t34 -14.5q21 0 35 14.5t14 34.5zM989 478q-8 32 -25.5 52t-45.5 20h-76v55v76q0 8 -6.5 13.5t-15.5 5.5h-1q-41 1 -139 0h-60q-13 0 -19 -11q-33 -50 -92 -148q-4 -6 -19 -30q-7 10 -22.5 30
t-21.5 28q-20 25 -64 82q-27 34 -57 31q-27 -1 -56 -34l-107 -115q-10 -12 -1 -24q5 -7 16 -25q14 -24 30 -45q5 -6 13.5 -7.5t15.5 3.5q3 3 6 5q7 9 24 29q24 29 51 60q3 3 5 8l1 1q7 -3 30 -37l122 -175q3 -4 14.5 -10t16.5 -6q8 -1 194.5 -0.5t195.5 0.5l22 8q27 0 45 20
t25 53q5 22 5 44q0 21 -4 43zM798 528q0 -9 -6 -16t-15 -7h-149h-1q-5 0 -10 3q-8 5 -10 14t2 18l52 98q5 14 19 14h97q9 0 15 -7t6 -16v-101zM358 277q-72 15 -103 39q-34 27 -43 85q-1 5 -4 9l-56 79q-4 7 -12.5 8.5t-15.5 -2.5q-1 -1 -3 -2q-50 -41 -74 -84t-12 -96
q8 -37 34 -65q24 -28 63 -45q33 -14 70.5 -16t81 12t84.5 44q6 5 7 13t-4 14t-13 7zM750 164q0 20 -14.5 34.5t-34.5 14.5t-34.5 -14.5t-14.5 -34.5t14.5 -34.5t34.5 -14.5t34.5 14.5t14.5 34.5zM948 233q-28 29 -67 29h-378q-39 0 -67 -29t-28 -69q0 -39 27 -67q0 -1 1 -2
q28 -29 67 -29h378q38 0 66 28h1v1q28 29 28 69q0 39 -27 68q0 1 -1 1zM911 130l-1 -1q-15 -14 -36 -14h-27h-146h-147h-45q-22 0 -37 15v1q-15 13 -15 33t15 35q16 14 37 14h45h147h146h27q22 0 38 -15q15 -15 15 -34q0 -20 -16 -34zM896 164q0 20 -14.5 34.5t-34.5 14.5
t-34.5 -14.5t-14.5 -34.5t14.5 -34.5t34.5 -14.5q21 0 35 14.5t14 34.5z" />
    <glyph glyph-name="uniE647" unicode="&#xe647;" 
d="M809 128v680h-595v-680h-170v-170h935v170h-170zM384 638h255v-510h-255v510z" />
    <glyph glyph-name="uniE648" unicode="&#xe648;" 
d="M882 854h-740v-68h34v-874l333 202l339 -202v874h34v68z" />
    <glyph glyph-name="uniE649" unicode="&#xe649;" 
d="M154.5 485q-42.5 0 -72.5 -30t-30 -72.5t30 -72.5t72.5 -30t72.5 30t30 72.5t-30 72.5t-72.5 30zM512.5 485q-42.5 0 -72.5 -30t-30 -72t30 -72t72.5 -30t72.5 30t30 72t-30 72t-72.5 30zM870 486q-42 0 -72 -30t-30 -72.5t30 -72.5t72 -30t72 30t30 72.5t-30 72.5
t-72 30z" />
    <glyph glyph-name="uniE64A" unicode="&#xe64a;" 
d="M512 892q-104 0 -198 -40t-162.5 -108.5t-108.5 -162.5t-40 -198t40 -198.5t108.5 -162.5t162.5 -108.5t198 -40.5t198.5 40.5t162.5 108.5t108.5 162.5t40.5 198.5t-40.5 198t-108.5 162.5t-162.5 108.5t-198.5 40zM512 -110q-100 0 -191.5 39t-157 105t-104.5 157.5
t-39 191.5t39 191.5t104.5 157t157 104.5t191.5 39t191.5 -39t157.5 -104.5t105 -157t39 -191.5t-39 -191.5t-105 -157.5t-157.5 -105t-191.5 -39zM799 548q8 0 13.5 5.5t5.5 13.5t-5.5 14t-13.5 6h-573q-8 0 -14 -6t-6 -14t6 -13.5t14 -5.5h38v-79h-19q-16 0 -27.5 -11
t-11.5 -28v-215q0 -8 6 -13.5t14 -5.5h70q24 69 83 112.5t133 43.5t133 -43.5t83 -112.5h71q8 0 13.5 5.5t5.5 13.5v215q0 17 -11 28t-27 11h-19v79h38zM378 467h-75v76h75v-76zM496 467h-75v76h75v-76zM603 467h-75v76h75v-76zM721 467h-75v76h75v-76z" />
    <glyph glyph-name="uniE64B" unicode="&#xe64b;" 
d="M672 270h-20l56 85v112l-28 -56h-113l135 197h34v-298q41 17 85 17q40 0 77 -14q9 46 9 92q0 92 -35.5 176t-96 145t-144 96.5t-175.5 35.5t-175.5 -35.5t-144 -96.5t-96 -145t-35.5 -176t35.5 -176t96 -144.5t144 -96.5t175.5 -36q89 0 171 34q-32 53 -32 115
q0 102 77 169zM652 608l-141 -197h-85l113 197h113zM483 608l-113 -197h-113l120 197h106zM201 270v-112h-28v450h28v-22l14 22h97l-111 -180v-130l28 57h85l-57 -85h-56zM426 270h-112l56 85h113zM539 355h113l-57 -85h-112zM820.5 298q-81.5 0 -139.5 -57.5t-58 -139
t58 -139.5t139.5 -58t139.5 58t58 139.5t-58 139t-139.5 57.5zM946 139l-120 -119l-39 -40l-92 91q-8 9 -8 20.5t8.5 20t20 8.5t19.5 -9l91 -91l-39 40l119 119q8 9 20 9t20 -8.5t8 -20t-8 -20.5z" />
    <glyph glyph-name="uniE64C" unicode="&#xe64c;" 
d="M456.5 857q-91.5 0 -175.5 -35.5t-144 -96.5t-96 -145t-36 -176t36 -176t96 -144.5t144 -96.5t175.5 -36t175 36t144 96.5t96.5 144.5t36 176t-36 176t-96.5 145t-144 96.5t-175 35.5zM652 607l-141 -197h-84l112 197h113zM483 607l-113 -197h-112l119 197h106zM201 269
v-112h-28v450h28v-22l14 22h97l-111 -180v-130l28 57h85l-56 -85h-57zM427 269h-113l56 85h113zM483 269l56 85h113l-56 -85h-113zM736 157h-28v112h-56l56 85v112l-28 -56h-113l135 197h34v-450z" />
    <glyph glyph-name="uniE64D" unicode="&#xe64d;" 
d="M871 62v-27q0 -24 -36 -49.5t-72 -38.5l-36 -13l-59 8q-96 12 -155 12q-27 0 -65.5 -3t-64.5 -6l-26 -3l-59 -8q-6 2 -15.5 5.5t-34 14.5t-43.5 22.5t-34.5 27.5t-15.5 31v27q0 36 39.5 72.5t103.5 68.5q3 1 27 -129t24 -133l20 1l-35 274q5 3 24.5 12.5t31.5 14.5
q5 1 10.5 5t13 14t7.5 23.5t-6 35.5q-42 42 -62 86t-20 119h360q0 -74 -20 -118t-62 -87q-5 -17 -6 -31.5t2 -22.5t8 -14t8 -7.5t6 -2.5q1 -1 63 -27q2 -1 -7 -69.5t-19 -137t-10 -67.5h22q2 17 7 44t15 84.5t17.5 95.5t9.5 37q64 -31 104 -68t40 -73v0zM718 640
q0 35 -17.5 67t-42.5 52.5t-49.5 36.5t-42.5 23l-17 7q-31 14 -73 0q-6 -2 -17.5 -6.5t-41 -21t-51.5 -36t-40.5 -52.5t-18.5 -70q0 -6 -5.5 -12t-13.5 -11t-16 -19.5t-12 -35.5h505q-7 21 -16 35.5t-15.5 20t-11 11t-4.5 11.5zM718 640z" />
    <glyph glyph-name="uniE64E" unicode="&#xe64e;" horiz-adv-x="1027" 
d="M458 786q29 0 49.5 -20.5t20.5 -49.5t-20.5 -49.5t-49.5 -20.5t-49.5 20.5t-20.5 49.5t20.5 49.5t49.5 20.5zM696 355q17 0 94.5 -89.5t145.5 -179.5l69 -89h-590q39 71 73 157q4 12 19 13t33.5 2.5t29.5 13.5q16 19 32 51.5t26 57.5t27.5 44t40.5 19zM382 659
q21 -4 34 -18t16 -25l2 -12l1 -263l141 -78q10 -7 9.5 -16t-13.5 -9l-226 126l58 -117l-9 -249h-48l-11 222l-84 98l-180 -323h-53l175 450l2 3l-48 25l-37 22l14 19q5 8 23 36t24.5 36t20 25t26 25t27.5 13q27 7 62.5 11t73.5 -1zM388 366l-7 105l-52 -71zM206 467l71 126
h-37l-77 -102z" />
    <glyph glyph-name="uniE64F" unicode="&#xe64f;" 
d="M652 248v216h112v53l84 -81l-84 -84v56h-56v-114q51 30 112 30q38 0 73 -12q11 47 11 96q0 91 -35.5 174t-95.5 143t-143 95.5t-174 35.5t-174 -35.5t-143 -95.5t-95.5 -143t-35.5 -174t35.5 -174t95.5 -143t143 -95.5t174 -35.5q87 0 167 32q-27 50 -27 108q0 85 56 148
zM260 240h-56v168h-56v-56l-84 84l86 83l-2 -55h112v-224zM344 156h-28v476h28v-476zM484 464v-224h-56v224h-56l84 112l84 -112h-56zM568 632h28v-476h-28v476zM819.5 296q-81.5 0 -138.5 -57.5t-57 -138.5t57 -138.5t138.5 -57.5t139 57.5t57.5 138.5t-57.5 138.5
t-139 57.5zM944 138l-119 -119l-39 -40l-91 91q-8 8 -8 20t8 20t19.5 8t20.5 -8l90 -91l-39 40l119 118q8 9 19.5 9t19.5 -8.5t8 -20t-8 -19.5z" />
    <glyph glyph-name="uniE650" unicode="&#xe650;" 
d="M457 856q-92 0 -175.5 -35.5t-144 -96t-96 -144t-35.5 -175t35.5 -175t96 -144t144 -96.5t175.5 -36t175.5 36t143.5 96.5t96 144t36 175t-36 175t-96 144t-143.5 96t-175.5 35.5zM256 245h-56v168h-56v-56l-84 84l86 83l-2 -55h112v-224zM341 161h-28v477h28v-477z
M481 469v-224h-56v224h-56l84 113l84 -113h-56zM594 161h-28v477h28v-477zM762 357v56h-56v-168h-56v224h112v54l85 -82z" />
    <glyph glyph-name="uniE651" unicode="&#xe651;" 
d="M594 119q-5 1 -11 2q-47 14 -134 41q-90 -27 -137 -41q-1 0 -6 -2t-6.5 -1.5t-5.5 1.5q-19 14 -19 39q-1 22 -0.5 79.5t0.5 58.5q-3 4 -41 56.5t-52 74.5q-10 17 -5 36q6 21 25 29q44 17 133 49q55 72 86 112q7 9 16 14q14 7 28.5 3t24.5 -17q29 -39 82 -113
q85 -31 130 -49q22 -9 28 -27q6 -19 -8 -41q-11 -17 -31 -44.5t-37.5 -52.5t-21.5 -30l1 -68q31 45 79.5 71t104.5 26q38 0 74 -12q10 47 10 96q0 91 -35.5 174t-95.5 143t-142.5 95.5t-174 35.5t-174.5 -35.5t-142.5 -95.5t-95 -143t-35.5 -174t35.5 -174t95 -143
t142.5 -95.5t174 -35.5q88 0 168 33q-28 50 -28 107q0 9 1 18zM672 435q12 15 0 19q-114 39 -123 41q-1 0 -14.5 19t-34.5 48t-34 46q-7 9 -15 5q-3 -1 -6 -5q-9 -11 -21.5 -27t-24.5 -31t-22.5 -28t-16.5 -20l-6 -8q-6 -6 -22 -11t-45 -12.5t-52 -16.5q-7 -7 -8.5 -9
t2.5 -5t6 -5q79 -109 79 -119v-4v-11v-16v-19v-22v-24v-22q0 -2 -0.5 -7.5t-0.5 -8t1 -4.5q4 -3 14 -0.5t21.5 6.5t22.5 7.5t22 7.5t20 7.5t16 6t11 3.5l4 2q4 2 9 0l4 -2q4 -1 10.5 -3.5t15.5 -6t19.5 -7.5t21 -7.5t22 -7.5t21.5 -7q4 -1 6 -2q1 -1 1 0q17 -3 17 3
q2 24 1.5 60t-1.5 53t0 25q1 0 2.5 3t4.5 7.5t7.5 11t9.5 14.5t10.5 16.5t11.5 17.5t12 17t11.5 16.5t10.5 15.5zM509 255h-112v28h28v169h-28v28h84v-197h28v-28zM817.5 297q-81.5 0 -139 -57.5t-57.5 -138.5t57.5 -138.5t139 -57.5t138.5 57.5t57 138.5t-57 138.5
t-138.5 57.5zM942 139l-119 -119l-39 -40l-91 91q-8 9 -8 20.5t8 19.5t19.5 8t19.5 -8l91 -91l-39 40l118 119q9 8 20.5 8t19.5 -8.5t8 -20t-8 -19.5z" />
    <glyph glyph-name="uniE652" unicode="&#xe652;" 
d="M677 464q-115 39 -124 41q-1 0 -14.5 19.5t-34.5 48t-34 45.5q-7 10 -15 6q-3 -2 -6 -5q-14 -18 -37.5 -47t-39.5 -48l-15 -20q-6 -6 -22 -11t-45 -12.5t-53 -16.5q-7 -7 -8.5 -9.5t3 -5.5t5.5 -5q80 -108 80 -119v-4v-11q0 -7 -0.5 -16t-0.5 -20v-22q0 -11 0.5 -23
t0.5 -23q0 -2 -0.5 -7t-0.5 -7.5t1 -4.5q4 -4 14 -1t21.5 6.5t22.5 7.5l22 8q11 4 20 7t16 6t11 5l5 1q4 1 8 0l4 -1q4 -2 11 -5t15.5 -6t19.5 -7t21.5 -8t22 -7.5t21.5 -6.5q4 -1 6 -3h1q18 -3 18 4q1 24 0.5 60t-1.5 53t1 25l2 3q2 3 5 8t7 11.5t9.5 14t11 16t11.5 17.5
t11.5 17.5t11.5 17t11 14.5q11 16 0 20zM513 264h-112v29h28v169h-28v28h84v-197h28v-29zM457 856q-92 0 -175.5 -36t-143.5 -96t-96 -143.5t-36 -175t36 -175t96 -144t143.5 -96t175.5 -35.5t175.5 35.5t143.5 96t96 144t36 175t-36 175t-96 143.5t-143.5 96t-175.5 36z
M727 433q-11 -17 -31 -45t-38 -53t-21 -29q0 -4 0.5 -59.5t-0.5 -79.5q-2 -28 -17 -36q-14 -7 -33 -1q-47 13 -135 41q-91 -28 -137 -41q-1 0 -6 -2t-6.5 -2t-5.5 1q-19 14 -20 40q-1 21 -0.5 79t0.5 60q-2 3 -40.5 55.5t-52.5 75.5q-11 17 -5 36q6 21 25 29q45 17 134 49
q55 72 86 113q8 9 17 14q14 7 28.5 3t24.5 -18q29 -38 83 -113q84 -31 130 -49q23 -9 28 -27q6 -19 -8 -41z" />
    <glyph glyph-name="uniE653" unicode="&#xe653;" 
d="M602 157h-303q-28 0 -48.5 20t-20.5 49v380q0 56 56 56h280q15 0 20.5 -14t-0.5 -28t-19 -14h-253q-28 0 -28 -28v-337q0 -28 28 -28h308h3q11 18 25 35v189q0 13 14 18t28 0t14 -18v-143q52 31 113 31q38 0 74 -12q11 47 11 96q0 92 -36 175t-96 143t-143 95.5
t-174.5 35.5t-174.5 -35.5t-143.5 -95.5t-96 -143t-35.5 -174.5t35.5 -175t96 -143.5t143.5 -95.5t174 -35.5q88 0 168 33q-27 50 -27 107q0 29 7 57zM342 522h169q11 0 19.5 -8.5t8.5 -20t-8.5 -20t-19.5 -8.5h-169q-12 0 -20 8.5t-8 20t8 20t20 8.5zM595 325h-253
q-12 0 -20 8t-8 20t8 20t20 8h253q11 0 19.5 -8t8.5 -20t-8.5 -20t-19.5 -8zM750 638.5q8 -8.5 8 -20t-8 -19.5l-131 -131q-8 -9 -19.5 -9t-19.5 8.5t-8 20t8 19.5l130 132q9 8 20.5 8t19.5 -8.5zM819.5 297q-81.5 0 -139 -57.5t-57.5 -139t57.5 -139t139 -57.5t139 57.5
t57.5 139t-57.5 139t-139 57.5zM944 138l-119 -119l-40 -40l-91 92q-8 8 -8 19.5t8.5 19.5t20 8t19.5 -8l91 -91l-40 40l120 119q8 8 19.5 8t20 -8t8.5 -19.5t-9 -20.5z" />
    <glyph glyph-name="uniE654" unicode="&#xe654;" 
d="M456 857q-92 0 -175.5 -35.5t-143.5 -95.5t-96 -142.5t-36 -173.5t36 -174t96 -143t143.5 -95.5t175.5 -35.5t175.5 35.5t144 95.5t96 143t35.5 174t-35.5 173.5t-96 142.5t-144 95.5t-175.5 35.5zM709 214q0 -56 -61 -56h-348q-28 0 -48.5 20.5t-20.5 48.5v378
q0 56 56 56h281q15 1 20.5 -13t0 -28.5t-19.5 -14.5h-254q-28 0 -28 -28v-335q0 -28 28 -28h309q28 0 28 28v196q0 12 14.5 17t28.5 0t14 -17v-224zM343 382h254q12 0 20 -8.5t8 -20t-8 -19.5t-20 -8h-254q-11 0 -19.5 8t-8.5 19.5t8.5 20t19.5 8.5zM315 493.5
q0 11.5 8.5 19.5t19.5 8h170q11 0 19.5 -8t8.5 -19.5t-8.5 -19.5t-19.5 -8h-170q-11 0 -19.5 8t-8.5 19.5zM753 598l-131 -130q-8 -8 -20 -8t-20 8t-8 19.5t8 19.5l131 131q9 8 20.5 8t19.5 -8t8 -19.5t-8 -20.5z" />
    <glyph glyph-name="uniE655" unicode="&#xe655;" 
d="M611 185h-213l-5 -47q-4 -6 -8 -7q-23 -4 -35 0q-2 0 -3.5 2t-2.5 3l-1 2v33h-7l-22 22v78l23 20l34 81q35 5 71 7q68 4 135 0l72 -7l35 -81l7 -6q57 40 128 40q38 0 74 -12q10 47 10 96q0 92 -35.5 175t-95.5 143t-143 95.5t-174.5 35.5t-174.5 -35.5t-143 -95.5
t-95.5 -143t-35.5 -174.5t35.5 -174.5t95.5 -143t143 -95.5t174 -35.5q88 0 168 32q-27 50 -27 108q0 44 16 84zM319 574l23 21l33 85q35 5 71 7q66 4 133 0l70 -7l33 -85l23 -21v-81l-22 -23h-7v-36q-3 -6 -7 -7q-14 -4 -34 0q-3 1 -7 6l-1 1v36h-104l-28 73q-4 11 -16 12
l-11 1q-10 2 -27.5 3.5t-33.5 2.5q-48 3 -88 2v10zM223 289q-3 -6 -7 -7q-23 -4 -34 0q-2 1 -4 2.5t-3 3.5l-1 1v36h-7l-21 23v81l23 21l33 84q35 5 70 7q67 5 134 0l70 -7l33 -85l23 -21v-11q-40 1 -89 -2q-39 -2 -71 -7q-15 -2 -21 -16l-26 -67h-102v-36zM495 448l-31 73
q-80 6 -124.5 6t-124.5 -6l-31 -73q155 7 311 0zM230 422h-57q-6 0 -6 -5v-35q0 -6 6 -6h64q6 0 6 6l-8 35q-1 5 -5 5zM411 269h-62q-7 0 -7 -7v-42q0 -7 7 -7h70q7 0 7 7l-8 42q-2 7 -7 7zM618 561l-8 -34q0 -2 1.5 -4t4.5 -2h64q5 0 5 6v34q0 6 -4 6h-57q-5 0 -6 -6z
M667 288l-31 70q-81 5 -126 5t-126 -5l-31 -70q157 6 314 0zM819 297q-81 0 -138.5 -57.5t-57.5 -138.5t57.5 -138.5t138.5 -57.5t138.5 57.5t57.5 138.5t-57.5 138.5t-138.5 57.5zM944 139l-119 -119l-40 -40l-91 91q-8 8 -8 19.5t8 20t20 8.5t20 -8l91 -91l-40 39l119 119
q8 9 19.5 9t20 -8.5t8.5 -20t-8 -19.5zM602 213h23q18 32 46 56h-61q-4 0 -6 -7l-9 -42q0 -3 2 -5t5 -2zM667 592l-30 74q-80 6 -125 6t-125 -6l-30 -74q155 7 310 0z" />
    <glyph glyph-name="uniE656" unicode="&#xe656;" 
d="M497 449l-30 73q-81 5 -125.5 5t-125.5 -5l-30 -73q155 7 311 0zM621 562l-8 -35q0 -2 1.5 -3.5t4.5 -1.5h64q6 0 6 5v35q0 6 -5 6h-57q-4 0 -6 -6zM670 592l-30 74q-80 6 -125 6t-125 -6l-31 -74q156 7 311 0zM231 423h-57q-5 0 -5 -5v-35q0 -6 5 -6h64q7 0 7 6l-8 35
q-1 5 -6 5zM677 271h-63q-5 0 -7 -7l-8 -42q-1 -3 1 -5t5 -2h71q6 0 6 7v42q0 7 -5 7zM457 857q-92 0 -175.5 -36t-143.5 -96t-96 -143.5t-36 -175t36 -175t96 -144t143.5 -96t175.5 -35.5t175 35.5t143.5 96t96.5 144t36 175t-36 175t-96.5 143.5t-143.5 96t-175 36z
M321 574l23 21l33 85q35 5 71 7q67 4 134 0l71 -7l32 -85l23 -21v-81l-21 -23h-7v-35q-4 -5 -7 -7q-15 -3 -35 0q-3 1 -7 6v1v35h-105l-29 73q-3 12 -15 13q-1 0 -11 1t-28 3t-33 3q-49 2 -89 1v10zM225 291q-3 -6 -8 -7q-22 -4 -34 0q-2 0 -4 2t-2 3l-1 2v35h-7l-22 23v81
l23 21l34 84q35 5 70 7q67 4 134 0l71 -7l33 -85l23 -20v-12q-40 1 -89 -2q-39 -1 -71 -7q-16 -2 -22 -16l-26 -67h-102v-35zM710 195l-21 -21h-7v-34q-4 -5 -8 -7q-15 -3 -34 0q-4 1 -8 6v1l-6 47h-225l-6 -47q-3 -6 -8 -7q-23 -3 -35 0q-2 1 -3.5 2.5t-2.5 3.5l-1 1v34h-7
l-22 21v78l23 20l34 80q36 5 72 7q68 4 135 0l72 -7l35 -80l23 -20v-78zM640 359q-82 6 -127.5 6t-126.5 -6l-31 -69q158 5 315 0zM414 271h-63q-7 0 -7 -7v-42q0 -7 7 -7h71q3 0 5 2t2 5l-9 42q-1 7 -6 7z" />
    <glyph glyph-name="uniE657" unicode="&#xe657;" 
d="M483 268h-56v-84h56v84zM483 436h-56v-84h56v84zM483 604h-56v-84h56v84zM624 209v423h28q11 0 19.5 -8t8.5 -20v-329q61 49 140 49q38 0 73 -12q11 47 11 96q0 91 -35.5 174t-95.5 143t-143 95.5t-174.5 35.5t-174.5 -35.5t-143 -95.5t-95.5 -143t-35.5 -174t35.5 -174
t95.5 -143t143 -95.5t174 -35.5q88 0 168 32q-27 50 -27 108t28 109zM287 128h-28q-11 0 -19.5 8t-8.5 20v448q0 12 8.5 20t19.5 8h28v-504zM567 128h-224v504h224v-504zM819.5 296q-81.5 0 -138.5 -57.5t-57 -138.5t57 -138.5t138.5 -57.5t139 57.5t57.5 138.5t-57.5 138.5
t-139 57.5zM944 138l-119 -119l-39 -40l-91 91q-8 8 -8 20t8 20t19.5 8t20.5 -8l90 -91l-39 40l119 119q8 8 19.5 8t20 -8.5t8.5 -20t-9 -19.5z" />
    <glyph glyph-name="uniE658" unicode="&#xe658;" 
d="M486 461h-56v-85h56v85zM486 292h-56v-85h56v85zM486 631h-56v-85h56v85zM458 857q-92 0 -175.5 -36t-144 -96.5t-96.5 -144t-36 -175.5t36 -176t96.5 -144.5t144 -96t175.5 -35.5t176 35.5t144.5 96t96 144.5t35.5 176t-35.5 175.5t-96 144t-144.5 96.5t-176 36z
M289 150h-29q-11 0 -19.5 8.5t-8.5 20.5v452q0 11 8.5 19.5t19.5 8.5h29v-509zM571 150h-226v509h226v-509zM684 179q0 -12 -8 -20.5t-20 -8.5h-28v509h28q12 0 20 -8.5t8 -19.5v-452z" />
    <glyph glyph-name="uniE659" unicode="&#xe659;" 
d="M143.5 476q-38.5 0 -65.5 -27t-27 -65.5t27 -65.5t65.5 -27t65.5 27t27 65.5t-27 65.5t-65.5 27zM512.5 476q-38.5 0 -65.5 -27t-27 -65.5t27 -65.5t65.5 -27t65.5 27t27 65.5t-27 65.5t-65.5 27zM882 476q-38 0 -65 -27t-27 -65.5t27 -65.5t65 -27t65 27t27 65.5
t-27 65.5t-65 27z" />
    <glyph glyph-name="uniE65A" unicode="&#xe65a;" 
d="M906 834h-787q-27 0 -46.5 -19.5t-19.5 -46.5t19.5 -46.5t46.5 -19.5h328v-721q0 -27 19 -46t46 -19t46.5 19t19.5 46v721h328q27 0 46 19.5t19 46.5t-19 46.5t-46 19.5z" />
    <glyph glyph-name="uniE65B" unicode="&#xe65b;" 
d="M512 880q-105 0 -194 -51.5t-141 -141t-52 -194.5q0 -55 21.5 -119t55.5 -121t75 -113t82.5 -101.5t75.5 -80t55 -54.5l21 -19q8 7 22 19.5t54.5 52.5t77 81t81.5 100t77 114.5t54 120t22 120.5q0 105 -51.5 194.5t-141 141t-194.5 51.5zM511 51q-12 10 -30.5 27.5
t-66 70t-83.5 102.5t-66 117t-30 122q0 116 81 198t195.5 82t195.5 -82t81 -198q0 -55 -29 -121t-69 -120t-81.5 -100t-69 -72t-28.5 -26zM511.5 604q-45.5 0 -78 -32.5t-32.5 -78t32.5 -78t78 -32.5t78 32.5t32.5 78t-32.5 78t-78 32.5z" />
    <glyph glyph-name="uniE65C" unicode="&#xe65c;" 
d="M558 248q14 -26 14 -49q0 -62 -70 -105.5t-168 -43.5q-93 0 -136 41t-43 108q0 23 14 49q-62 -25 -97.5 -61t-35.5 -77q0 -78 78 -128.5t220 -50.5q97 0 179 24t130 65t48 90q0 41 -36 77t-97 61zM794 699q-124 137 -355 134q-62 0 -105 -9h-60v-714h119v297
q49 36 114 53t124 7q75 -19 133.5 -11.5t100.5 26.5t69.5 44t40.5 41.5t13 18.5q-4 -1 -10.5 -0.5t-27.5 6.5t-42.5 16.5t-53 34t-60.5 56.5zM631 586q-47 19 -122.5 -6.5t-115.5 -53.5v179q9 2 23 4.5t54.5 5.5t76 -0.5t77 -21t67.5 -48.5q22 -27 52 -42t48 -16l19 -1
q-3 -2 -9 -5.5t-24.5 -9.5t-38 -8t-49 3t-58.5 20z" />
    <glyph glyph-name="uniE65D" unicode="&#xe65d;" 
d="M512 891q-103 0 -197 -40.5t-162 -108.5t-108.5 -162t-40.5 -197t40.5 -197.5t108.5 -162t162 -108t197 -40.5t197.5 40.5t162 108t108 162t40.5 197.5t-40.5 197t-108 162t-162 108.5t-197.5 40.5zM512 -74q-93 0 -177.5 36t-145.5 97.5t-97.5 146t-36.5 177.5
t36.5 177.5t97.5 145.5t145.5 97.5t177.5 36.5t177.5 -36.5t146 -97.5t97.5 -145.5t36 -177.5t-36 -177.5t-97.5 -146t-146 -97.5t-177.5 -36zM560 662h-203q-10 -4 -16.5 -14t-6.5 -21v-539q0 -15 10 -25t24 -10t24 10t10 25v199h158q75 0 128 55t53 132.5t-53 132.5
t-128 55zM583 357h-181v235h181q35 0 62.5 -38t27.5 -79t-27.5 -79.5t-62.5 -38.5z" />
    <glyph glyph-name="uniE65E" unicode="&#xe65e;" 
d="M512.5 547q-57.5 0 -98.5 -40t-41 -96.5t41 -96.5t98.5 -40t98 40t40.5 96.5t-40.5 96.5t-98 40zM512 325q-36 0 -61.5 25t-25.5 60.5t25.5 60.5t61.5 25t62 -25t26 -60.5t-26 -60.5t-62 -25zM512.5 891q-103.5 0 -197.5 -40.5t-162 -108.5t-108.5 -162t-40.5 -197.5
t40.5 -197.5t108.5 -162t162 -108t197.5 -40t197.5 40t162 108t108 162t40 197.5t-40 197.5t-108 162t-162 108.5t-197.5 40.5zM512 -74q-93 0 -177.5 36t-146 97t-97.5 146t-36 178t36 177.5t97.5 146t146 97.5t177.5 36t178 -36t146 -97.5t97 -146t36 -177.5t-36 -178
t-97 -146t-146 -97t-178 -36zM692 614.5q-35 34.5 -81 53.5q-47 20 -99 20t-99 -20q-45 -19 -80.5 -53.5t-54.5 -79.5q-20 -46 -20 -96.5t20 -97.5q19 -44 54.5 -78.5t80.5 -53.5q6 -3 13 -5l-31 -75h-5q-10 0 -17.5 -7.5t-7.5 -18t7.5 -18t17.5 -7.5h248q11 0 18.5 7.5
t7.5 18t-7.5 18t-18.5 7.5h-5l-31 76q20 8 37 18q58 33 92 89q35 58 35 126q0 51 -20 97q-19 45 -54 79.5zM451 129l26 63q18 -3 35 -3q20 0 40 3l25 -63h-126zM686 338q-27 -45 -73 -71q-47 -27 -101 -27q-84 0 -143 58t-59 140.5t59 140.5t143 58t143 -58t59 -141
q0 -54 -28 -100zM513 554q17 0 28.5 11.5t11.5 27.5t-11.5 27.5t-28.5 11.5t-28.5 -11.5t-11.5 -27.5t11.5 -27.5t28.5 -11.5zM513 594q1 0 1 -1t-1 -1t-1 1t1 1z" />
    <glyph glyph-name="uniE65F" unicode="&#xe65f;" 
d="M512.5 891q-103.5 0 -197.5 -40.5t-162 -108.5t-108.5 -162t-40.5 -197.5t40.5 -197.5t108.5 -162t162 -108t197.5 -40t197.5 40t162 108t108 162t40 197.5t-40 197.5t-108 162t-162 108.5t-197.5 40.5zM512 -74q-93 0 -177.5 36t-146 97t-97.5 146t-36 178t36 177.5
t97.5 146t146 97.5t177.5 36t178 -36t146 -97.5t97 -146t36 -177.5t-36 -178t-97 -146t-146 -97t-178 -36zM798 545q8 0 13.5 6t5.5 14.5t-5.5 14.5t-13.5 6h-572q-7 0 -13 -6t-6 -14.5t6 -14.5t13 -6h39v-81h-19q-16 0 -27.5 -12t-11.5 -29v-223q0 -8 6 -14t13 -6h71
q24 72 82.5 117t132.5 45t132.5 -45t82.5 -117h71q8 0 13.5 6t5.5 14v223q0 17 -11 29t-27 12h-19v81h38zM379 464h-76v81h76v-81zM493 464h-76v81h76v-81zM607 464h-76v81h76v-81zM722 464h-76v81h76v-81z" />
    <glyph glyph-name="uniE660" unicode="&#xe660;" 
d="M512.5 891q-103.5 0 -197.5 -40.5t-162 -108.5t-108.5 -162t-40.5 -197.5t40.5 -197.5t108.5 -162t162 -108t197.5 -40t197.5 40t162 108t108 162t40 197.5t-40 197.5t-108 162t-162 108.5t-197.5 40.5zM512 -74q-93 0 -177.5 36t-146 97t-97.5 146t-36 178t36 177.5
t97.5 146t146 97.5t177.5 36t178 -36t146 -97.5t97 -146t36 -177.5t-36 -178t-97 -146t-146 -97t-178 -36zM749 623h-43v-64q9 0 15 -6.5t6 -15.5v-322q0 -9 -6 -15.5t-15 -6.5h-387q-9 0 -15.5 6.5t-6.5 15.5v322q0 9 6.5 15.5t15.5 6.5v64h-43q-18 0 -30.5 -12.5
t-12.5 -30.5v-408q0 -18 12.5 -30.5t30.5 -12.5h473q17 0 30 12.5t13 30.5v408q0 18 -13 30.5t-30 12.5zM652 559q13 0 22.5 9.5t9.5 22.5v64q0 14 -9.5 23.5t-22.5 9.5t-22.5 -9.5t-9.5 -23.5v-64q0 -13 9.5 -22.5t22.5 -9.5zM395 344q-13 0 -22.5 -9.5t-9.5 -23t9.5 -23
t22.5 -9.5h150q13 0 22.5 9.5t9.5 23t-9.5 23t-22.5 9.5h-150zM663 440.5q0 13.5 -9.5 23t-23.5 9.5h-236q-13 0 -22.5 -9.5t-9.5 -23t9.5 -23t22.5 -9.5h236q14 0 23.5 9.5t9.5 23zM372.5 559q13.5 0 23 9.5t9.5 22.5v64q0 14 -9.5 23.5t-23 9.5t-23 -9.5t-9.5 -23.5v-64
q0 -13 9.5 -22.5t23 -9.5zM598 623h-172v-64h172v64z" />
    <glyph glyph-name="uniE661" unicode="&#xe661;" 
d="M512.5 891q-103.5 0 -197.5 -40.5t-162 -108.5t-108.5 -162t-40.5 -197.5t40.5 -197.5t108.5 -162t162 -108t197.5 -40t197.5 40t162 108t108 162t40 197.5t-40 197.5t-108 162t-162 108.5t-197.5 40.5zM512 -74q-93 0 -177.5 36t-146 97t-97.5 146t-36 178t36 177.5
t97.5 146t146 97.5t177.5 36t178 -36t146 -97.5t97 -146t36 -177.5t-36 -178t-97 -146t-146 -97t-178 -36zM768 333h-208v70h162q10 0 16.5 6.5t6.5 16.5v23q0 10 -6.5 17t-16.5 7h-162l132 132q7 7 7 16t-7 16l-16 16q-6 6 -15 6t-16 -6l-120 -121l-121 121q-6 7 -15.5 7
t-15.5 -7l-16 -15q-7 -7 -7 -16t7 -16l132 -133h-161q-10 0 -16.5 -7t-6.5 -17v-23q0 -10 6.5 -16.5t16.5 -6.5h162v-70h-209q-9 0 -16 -7t-7 -17v-23q0 -10 7 -16.5t16 -6.5h209v-187q0 -10 7 -16.5t16 -6.5h23q10 0 17 6.5t7 16.5v187h208q10 0 17 6.5t7 16.5v23
q0 10 -7 17t-17 7z" />
    <glyph glyph-name="uniE662" unicode="&#xe662;" 
d="M512.5 891q-103.5 0 -197.5 -40.5t-162 -108.5t-108.5 -162t-40.5 -197.5t40.5 -197.5t108.5 -162t162 -108t197.5 -40t197.5 40t162 108t108 162t40 197.5t-40 197.5t-108 162t-162 108.5t-197.5 40.5zM512 -74q-93 0 -177.5 36t-146 97t-97.5 146t-36 178t36 177.5
t97.5 146t146 97.5t177.5 36t178 -36t146 -97.5t97 -146t36 -177.5t-36 -178t-97 -146t-146 -97t-178 -36zM512 408q-39 0 -66.5 -27t-27.5 -66v-70q0 -10 4 -23h181q3 13 3 23v70q0 39 -27.5 66t-66.5 27zM512 688q-126 0 -215.5 -89t-89.5 -214v-256h71v256
q0 96 68.5 164.5t165.5 68.5t166 -68.5t69 -164.5v-256h70v256q0 125 -89.5 214t-215.5 89z" />
    <glyph glyph-name="uniE663" unicode="&#xe663;" 
d="M512.5 891q-103.5 0 -197.5 -40.5t-162 -108.5t-108.5 -162t-40.5 -197.5t40.5 -197.5t108.5 -162t162 -108t197.5 -40t197.5 40t162 108t108 162t40 197.5t-40 197.5t-108 162t-162 108.5t-197.5 40.5zM872 117h-439v526q0 8 -6 13.5t-15 5.5h-209q-9 0 -15 -5.5
t-6 -13.5v-195q0 -8 6 -13.5t15 -5.5h188v-351h462q-64 -71 -152.5 -111.5t-188.5 -40.5q-93 0 -177.5 36t-145.5 97.5t-97.5 146t-36.5 177.5t36.5 177.5t97.5 145.5t145.5 97.5t177.5 36.5t177.5 -36.5t146 -97.5t97.5 -145.5t36 -177.5q0 -149 -87 -268q-4 2 -10 2z
M391 623v-156h-167v156h167zM830.5 234q-17.5 0 -29.5 -11.5t-12 -27.5t12 -27.5t29.5 -11.5t29.5 11.5t12 27.5t-12 27.5t-29.5 11.5zM558.5 234q-17.5 0 -29.5 -11.5t-12 -27.5t12 -27.5t29.5 -11.5t29.5 11.5t12 27.5t-12 27.5t-29.5 11.5zM851 467h-188q-9 0 -15 -5.5
t-6 -13.5v-58q0 -8 6 -14t15 -6h188q9 0 15 6t6 14v58q0 8 -6 13.5t-15 5.5zM266 565h21v-59q0 -8 6 -13.5t14.5 -5.5t14.5 5.5t6 13.5v59h21q9 0 15 5.5t6 13.5t-6 14t-15 6h-83q-9 0 -15 -6t-6 -14t6 -13.5t15 -5.5zM600 390h-62q-1 0 -3 -1h-1h-1t-1 -1q-11 -2 -14 -12
l-41 -71q-3 -6 -2 -13v-19v-39q0 -23 21 -34q2 23 20 38t42 15h42q9 0 15 6t6 14v97q0 8 -6 14t-15 6zM579 273h-41q-8 0 -14 4.5t-7 12.5l13 22l22 39h27v-78zM851 351h-188q-9 0 -15 -6t-6 -14v-58q0 -8 6 -14t15 -6h188q9 0 15 6t6 14v58q0 8 -6 14t-15 6zM726 234h-84
q-2 0 0 -10t13 -19.5t29 -9.5h84q1 3 -1.5 11.5t-13 18t-27.5 9.5z" />
    <glyph glyph-name="uniE664" unicode="&#xe664;" 
d="M878 383.5q0 121.5 -73 218.5l154 154l-74 75l-154 -154q-98 72 -219.5 72t-218.5 -72l-154 154l-75 -75l154 -154q-72 -97 -72 -218.5t72 -219.5l-154 -154l75 -74l154 154q97 -73 218.5 -73t219.5 73l154 -154l74 74l-154 154q73 98 73 219.5zM512 668q88 0 160 -50
l-160 -160l-161 160q73 50 161 50zM227 383q0 88 50 161l160 -161l-160 -160q-50 72 -50 160zM512 99q-88 0 -161 49l161 161l160 -161q-72 -49 -160 -49zM747 223l-161 160l161 161q49 -73 49 -161t-49 -160z" />
    <glyph glyph-name="uniE665" unicode="&#xe665;" 
d="M512 830q-91 0 -174 -35t-143 -95t-95 -143t-35 -174t35 -173.5t95 -142.5t143 -95.5t174 -35.5t173.5 35.5t142.5 95.5t95.5 142.5t35.5 173.5t-35.5 174t-95.5 143t-142.5 95t-173.5 35zM511.5 18q-99.5 0 -183.5 48.5t-133 133t-49 184t49 183.5t133 133t183.5 49
t184 -49t133 -133t48.5 -183.5t-48.5 -184t-133 -133t-184 -48.5zM512 668q-118 0 -201.5 -83.5t-83.5 -201.5t83.5 -201t201.5 -83t201 83t83 201t-83 201.5t-201 83.5z" />
    <glyph glyph-name="uniE666" unicode="&#xe666;" 
d="M842 479q-7 62 -54 124t-105 95q-65 35 -158 36t-163 -36q-61 -33 -107 -91t-57 -144q-10 -72 8 -139.5t59 -116.5q25 -30 39.5 -45.5t35 -35.5t41.5 -42q26 -28 62.5 -83t59.5 -96l24 -42q90 167 130 212q12 13 36 38t47 51t50 62q40 52 50.5 113t1.5 140zM533 584
q26 -2 56 -2h106q-2 -25 -2 -72q0 -46 2 -71h-116v-92q-2 -26 26 -26h48q14 0 18.5 12t7.5 45q16 -10 40 -16q-10 -43 -19 -57t-35 -14h-83q-36 0 -36 40v83q0 24 -2 54h116v88q-100 0 -127 -1v29zM717 222q-80 0 -135 1q-54 1 -93 9.5t-63 26.5t-45 48q-17 -47 -35 -87
q-14 21 -28 26q14 19 22 39t13 46t11 64q15 -5 39 -7q-20 -34 -4.5 -57.5t27.5 -34.5v141q-67 0 -90 -2v31q22 -1 83 -1v67q-38 0 -69 -2v32q22 -2 69 -2q0 32 -2 62h35q-2 -31 -2 -62q40 0 59 2v-32q-19 2 -59 2v-67q49 0 77 1v-31q-29 2 -70 2v-56q32 0 64 2v-31
q-31 2 -64 2v-75q23 -19 115.5 -22.5t160.5 6.5q-11 -17 -16 -41z" />
    <glyph glyph-name="uniE667" unicode="&#xe667;" 
d="M567 546q19 -48 43 -74q28 30 46 74h-89zM368.5 537q19.5 42 31.5 84q21 -12 37 -18q-11 -16 -28 -49q-18 -34 -40 -77q12 0 54 4q21 33 33 63q23 -16 35 -21q-17 -23 -43 -62q-25 -38 -62 -89q16 0 79 9q0 -18 2 -32q-11 -1 -45 -4.5t-73 -12.5q-5 15 -14 37
q18 5 36.5 29.5t35.5 55.5q-10 0 -29.5 -3.5t-33.5 -10.5q-7 21 -17 37q22 18 41.5 60zM476 272q-32 -5 -68 -13t-64 -20q-3 18 -14 39q53 5 147 28q-1 -16 -1 -34zM675 222q-47 28 -80.5 39t-71.5 22q10 17 16 33q115 -40 152 -59q-7 -14 -16 -35zM558 355q10 15 14 33
q32 -13 58 -22q26 -10 50 -20q-8 -12 -15 -32q-21 11 -46 20.5t-61 20.5zM712 358q-54 26 -103 70q-18 -16 -47 -34t-64 -38q-7 18 -24 30q36 12 68 30.5t46 32.5q-27 33 -42 70q-21 -36 -39 -61q-17 14 -30 19q20 21 34.5 45t27 50t21.5 58q21 -13 36 -18q-8 -10 -22 -38
h129q-15 -41 -30 -67t-42 -58q23 -19 54.5 -36.5t50.5 -22.5q-15 -14 -24 -32zM842 479q-7 62 -54 124t-106 95q-64 35 -157 36.5t-164 -36.5q-61 -33 -106.5 -91t-57.5 -143q-10 -73 8 -140.5t60 -116.5q24 -29 39 -45t35.5 -36t41.5 -42q26 -27 62 -82.5t60 -96.5l23 -42
q91 168 131 212q11 13 35.5 38t47.5 51t50 62q39 52 50 113t2 140z" />
    <glyph glyph-name="uniE668" unicode="&#xe668;" 
d="M975 282.5q-16 15.5 -38 15.5t-37 -16l-65 -64v380q0 77 -54.5 132t-132.5 55q-70 0 -122.5 -46t-62.5 -115h-2v-26v-429q0 -33 -23.5 -56.5t-56.5 -23.5t-56.5 23.5t-23.5 56.5v509q0 24 -16 41q-16 15 -42 14t-42 -17l-151 -152q-16 -15 -16 -37.5t15.5 -38t37.5 -15.5
t38 16l69 69v-389q0 -77 55 -132t132 -55q71 0 124.5 46t62.5 114v27v429q0 33 23.5 56.5t57 23.5t57 -23.5t23.5 -56.5v-509q2 -19 15 -33q16 -16 40.5 -16t40.5 16l150 151q16 15 16 37.5t-16 38z" />
    <glyph glyph-name="uniE669" unicode="&#xe669;" 
d="M512 690q-127 0 -216.5 -89.5t-89.5 -216.5v-272h85v270q0 93 64.5 158t156.5 65t156.5 -65t64.5 -158v-270h85v272q0 127 -89.5 216.5t-216.5 89.5zM512 894q-104 0 -198.5 -40.5t-162.5 -108.5t-108.5 -162.5t-40.5 -198.5t40.5 -198.5t108.5 -162.5t162.5 -108.5
t198.5 -40.5t198.5 40.5t162.5 108.5t108.5 162.5t40.5 198.5t-40.5 198.5t-108.5 162.5t-162.5 108.5t-198.5 40.5zM512 -109q-100 0 -191.5 39t-157.5 105t-105 157.5t-39 191.5t39 191.5t105 157.5t157.5 105t191.5 39t191.5 -39t157.5 -105t105 -157.5t39 -191.5
t-39 -191.5t-105 -157.5t-157.5 -105t-191.5 -39zM512 435q-42 0 -72 -29.5t-30 -70.5v-104h204v104q0 41 -30 70.5t-72 29.5z" />
    <glyph glyph-name="uniE66A" unicode="&#xe66a;" 
d="M257 383l102 -102l51 51l-102 102zM359 485l127 -128l51 51l-127 128zM995 561l-305 305q-10 11 -25 11t-26 -11l-611 -610q-10 -11 -10 -26t10 -25l306 -306q10 -10 25 -10t26 10l610 611q11 11 11 26t-11 25zM894 510l-509 -509q-11 -10 -26 -10t-25 10l-204 204
q-10 10 -10 25t10 26l509 509q11 10 26 10t25 -10l204 -204q10 -10 10 -25t-10 -26zM563 688l127 -127l51 51l-127 127zM461 587l102 -102l51 51l-102 101zM334 205l-127 127l-51 -51l127 -127z" />
    <glyph glyph-name="uniE66B" unicode="&#xe66b;" 
d="M877 831h-205h-320h-204q-34 0 -59 -25t-25 -59v-735q0 -30 25 -53.5t59 -23.5h172h384h173q33 0 58 25t25 58v729q0 34 -25 59t-58 25zM400 719h224v-56q0 -27 -12 -41.5t-44 -14.5h-112q-31 0 -43.5 14.5t-12.5 41.5v56zM344 47v112q0 27 12.5 41.5t43.5 14.5h56v-168
h-112zM568 47v168h56q31 0 43.5 -14.5t12.5 -41.5v-112h-112zM848 103q0 -34 -11 -45t-45 -11v224q0 33 -11 44.5t-45 11.5h-448q-33 0 -44.5 -11.5t-11.5 -44.5v-224q-33 0 -44.5 11t-11.5 45v560q0 33 11.5 44.5t44.5 11.5h56v-168q0 -34 11.5 -45t44.5 -11h336
q34 0 45 11t11 45v168h56q34 0 45 -11.5t11 -44.5v-560z" />
    <glyph glyph-name="uniE66C" unicode="&#xe66c;" 
d="M754 832l-483 -1q-13 0 -22.5 -10t-9.5 -24l-2 -829q0 -15 9.5 -25t22.5 -10l484 1q13 0 22.5 10.5t9.5 24.5l1 829q0 14 -9 24t-23 10zM685 68q0 -14 -8.5 -24t-21.5 -10l-288 -1q-13 0 -21.5 10t-8.5 24v16h200v100h-200v50h100v100h-100l1 50h199v100l-199 -1v51h99
v100l-99 -1v66q0 14 9 24t21 10h289q12 0 21 -9.5t8 -23.5z" />
    <glyph glyph-name="uniE66D" unicode="&#xe66d;" 
d="M560 459l-103 103l-42 -41l103 -103zM986 2l-78 261q-5 19 -20.5 30t-35.5 11h-121v-29h69q18 0 31.5 -9.5t18.5 -25.5l43 -191q7 -23 -8 -37.5t-42 -14.5h-661q-28 0 -43 14.5t-7 37.5l42 191v1l2 5h-1v19l220 -219q8 -8 20 -8t21 8l495 496q9 8 9 20t-9 21l-247 248
q-9 8 -21 8t-21 -8l-495 -496q-8 -7 -8.5 -18t5.5 -20q-21 -11 -28 -34l-78 -261q-9 -28 9 -51.5t48 -23.5h835q30 0 47.5 23.5t8.5 51.5zM230 335l20 21l103 -103l42 41l-104 103l42 41l82 -82l42 41l-83 83l124 124l82 -83l42 41l-83 83l41 41l104 -103l41 41l-103 103
l20 21q9 9 21 9t21 -9l165 -165q8 -9 8 -21t-8 -20l-413 -413q-9 -9 -21 -9t-20 9l-165 165q-9 9 -9 21t9 20z" />
    <glyph glyph-name="uniE66E" unicode="&#xe66e;" 
d="M942 -47q-19 -19 -46 -19t-46 19l-172 172q-102 -72 -225 -72q-106 0 -195.5 52t-142 141.5t-52.5 195.5t52.5 195.5t142 142t195.5 52.5t195.5 -52.5t141.5 -142t52 -195.5q0 -123 -72 -225l172 -172q19 -19 19 -46t-19 -46zM452.5 702q-107.5 0 -183.5 -76t-76 -183.5
t76 -183.5t183.5 -76t183.5 76t76 183.5t-76 183.5t-183.5 76z" />
    <glyph glyph-name="uniE66F" unicode="&#xe66f;" 
d="M260 215v56v112h503v-112v-56q5 -1 12.5 -2t27 0t34 5.5t26.5 18t12 34.5v224q0 35 -10 45.5t-46 10.5h-615q-35 0 -45.5 -10.5t-10.5 -45.5v-224q0 -34 26 -46.5t86 -9.5zM987 551v-336q0 -23 -6 -41.5t-14.5 -30t-23.5 -19.5t-27 -12t-31.5 -6t-30 -2.5t-29.5 -0.5h-6
h-56v-168h-503v168h-112q-41 0 -76.5 29t-35.5 83v336q0 57 27 84t85 27h112v168h503v-168h112q58 0 85 -27t27 -84zM652 -9v280h-280v-280h280zM652 662v56h-280v-56h280z" />
    <glyph glyph-name="uniE670" unicode="&#xe670;" 
d="M891 156l-84 -80l-150 159l-85 -121l-60 340l354 -57l-126 -81zM844 564l-142 174l-450 -73l-80 -343l151 -294l311 45l20 -92l-378 -47l-201 378l106 426l559 94l198 -236v-142h-95z" />
    <glyph glyph-name="uniE671" unicode="&#xe671;" 
d="M929 186q-7 25 -13 41t-10 23t-18 33q9 3 21.5 13.5t17.5 19.5q17 27 0 59l-80 150q-6 12 -23 29.5t-29 24.5q-8 4 -17 5t-23.5 0t-17.5 -1h-50v201q0 28 -21 39t-58 11l-155 -2q-36 0 -51 -9.5t-15 -38.5v-201h-101h-6h-5h-4q-3 0 -4 -0.5t-3.5 -1t-4.5 -1.5t-5 -2
t-6 -3q-4 -2 -8 -6t-7 -7.5t-7 -10t-5.5 -9t-5.5 -9.5t-4 -8l-80 -150q-17 -32 0 -59t54 -29q1 -51 -14.5 -96t-34.5 -59q-27 -20 -39.5 -40t-11.5 -33.5t1 -26.5q3 -29 23.5 -56t49.5 -41l8 -3h674l6 2q24 7 46 26q22 20 35.5 56.5t9.5 65.5q-3 18 -5.5 54t-3.5 50z
M277 468q1 4 26.5 9.5t32.5 5.5h151v251h100v-251h150q8 0 31.5 -5t25.5 -8l44 -87h-602zM841 17q-6 -6 -14 -10h-35q10 42 23 112q3 17 5 30l-78 9q-1 -8 -4 -24q-14 -57 -66 -127h-24q3 10 6 21q8 39 18 91q3 17 4 30l-77 9q-1 -8 -4 -24q-14 -57 -66 -127h-23q2 10 5 21
q8 39 18 91q3 17 5 30l-78 9q-1 -11 -4 -24q-13 -57 -66 -127h-3q2 10 5 21q9 39 18 91q4 17 5 30l-78 9q-1 -10 -4 -24q-13 -57 -66 -127h-77q-18 11 -20 26q-2 22 31 47q4 3 24 16.5t29.5 21.5t21 26t14.5 38q2 20 2 33.5t-1 37t-1 30.5h502q3 -16 25 -59.5t25 -69.5
q8 -69 13 -104q3 -20 -10 -33z" />
    <glyph glyph-name="uniE672" unicode="&#xe672;" 
d="M907 130l-93 -90l-168 178l-94 -135l-67 379l395 -64l-140 -90zM855 726h-686v-686h316v-105h-422v897h897v-317h-105v211z" />
    <glyph glyph-name="uniE673" unicode="&#xe673;" 
d="M612 134q21 0 35.5 10t14.5 24l-1 330q0 14 -14.5 24t-35 10t-35 -10t-14.5 -24v-330q0 -14 14.5 -24t35.5 -10zM861 34zM911 682h-349v24v25q0 21 -14.5 35.5t-35 14.5t-35.5 -14.5t-15 -35.5v-24v-25h-348q-15 0 -32.5 -17.5t-17.5 -32.5q0 -17 11 -34t25 -17l64 1
v-548q0 -35 6.5 -42.5t42.5 -7.5h598q25 0 36.5 15.5t13.5 34.5v548h64q14 0 24.5 16.5t10.5 33.5q0 15 -17 32.5t-32 17.5zM761 84h-498v498h498v-498zM412.5 134q20.5 0 35 10t14.5 24v330q0 14 -14.5 24t-35 10t-35 -10t-14.5 -24v-330q0 -14 14.5 -24t35 -10z" />
    <glyph glyph-name="uniE674" unicode="&#xe674;" 
d="M959 717q5 33 -11 59.5t-43 32.5l-108 21q-26 5 -48 -14.5t-27 -52.5l-91 -711q-2 -17 1 -32t10 -27.5t18.5 -21t25.5 -11.5l107 -21q27 -5 48.5 14.5t25.5 52.5zM506 -65q27 0 46 23t19 56v736q0 33 -19 56.5t-46 23.5h-93q-27 0 -46 -23.5t-19 -56.5v-736
q0 -33 14.5 -56t41.5 -23h102zM495 552q8 0 13 -8t5 -20t-5 -20t-13 -8h-76q-8 0 -13 8t-5 20t5 20t13 8h76zM495 384q8 0 13 -8t5 -20.5t-5 -20t-13 -7.5h-76q-8 0 -13 7.5t-5 20t5 20.5t13 8h76zM223 -65q27 0 46.5 23t19.5 56v736q0 33 -19.5 56.5t-46.5 23.5h-93
q-27 0 -46.5 -23.5t-19.5 -56.5v-736q0 -33 19.5 -56t46.5 -23h93zM139 159q-8 0 -13.5 8t-5.5 20t5.5 20.5t13.5 8.5h75q8 0 13 -8.5t5 -20.5t-5 -20t-13 -8h-75zM214 552q9 0 13.5 -8t4.5 -20t-4.5 -20t-13.5 -8h-75q-8 0 -13.5 8t-5.5 20t5.5 20t13.5 8h75zM214 384
q9 0 13.5 -8t4.5 -20t-4.5 -20t-13.5 -8h-75q-8 0 -13.5 8t-5.5 20t5.5 20t13.5 8h75z" />
    <glyph glyph-name="uniE675" unicode="&#xe675;" 
d="M164 385q0 95 47 175.5t127 127t175 46.5q131 0 229 -85.5t116 -213.5h101q-12 111 -74 202t-160 144t-212 53q-91 0 -174 -35.5t-143 -96t-95.5 -143.5t-35.5 -174t35.5 -174t95.5 -143t143 -95.5t174 -35.5v99q-95 0 -175 47t-127 127t-47 175zM886 374l-373 61
l63 -358l89 127l158 -168l89 85l-158 168z" />
    <glyph glyph-name="uniE676" unicode="&#xe676;" 
d="M33 790h814v-156h-814v156zM378 665h125v-688h-125v688zM597 384h156v-126h-156v126zM815 384h158v-126h-158v126zM597 227h156v-125h-156v125zM815 227h158v-125h-158v125zM597 540h156v-126h-156v126zM815 540h158v-126h-158v126zM565 70h439v-93h-439v93z" />
    <glyph glyph-name="uniE677" unicode="&#xe677;" 
d="M687 327q7 5 19 14.5t42.5 37.5t53.5 55t42 63t19 66q-1 70 -52 119t-124 49q-72 0 -121.5 -48.5t-54.5 -119.5q-2 -30 15.5 -65.5t44 -64.5t53 -53.5t44.5 -38.5zM684 644q32 0 54.5 -22.5t22.5 -53.5t-22.5 -53.5t-54.5 -22.5t-54.5 22.5t-22.5 53.5t22.5 53.5
t54.5 22.5zM463 183q10 13 17 28q24 47 23 87q0 96 -73.5 163.5t-177.5 67.5h-1h-1q-103 0 -176.5 -66.5t-73.5 -160.5q0 -10 1 -20q1 -18 7 -37q10 -37 34 -69q31 -48 84 -98.5t89 -78t37 -26.5q6 4 16 11.5t38 30.5t53 46t55 57t49 65zM248.5 226q-42.5 0 -73 29.5
t-30.5 71.5t30.5 71.5t73 29.5t72.5 -29.5t30 -71.5t-30 -71.5t-72.5 -29.5zM915 167q-200 38 -209 93q-1 10 4 16h-51q3 -16 0 -27t8.5 -23t16.5 -19t23 -15.5t27 -13t30 -11t31.5 -9.5t32.5 -9q42 -11 61 -17.5t38 -19.5t11 -31t-39 -43q-42 -33 -110 -47t-135 -10
t-127.5 13.5t-99 19t-37.5 10.5l-51 -51q293 -97 492 -30q108 37 145 107q30 56 -7 92q-20 19 -54 25z" />
    <glyph glyph-name="uniE678" unicode="&#xe678;" 
d="M512 831q-91 0 -174 -35.5t-143 -95.5t-95.5 -143t-35.5 -174t35.5 -174.5t95.5 -143.5t143 -95.5t174 -35.5t174.5 35.5t143.5 95.5t95.5 143.5t35.5 174.5t-35.5 174t-95.5 143t-143.5 95.5t-174.5 35.5zM672 271h-153l101 111l-183 1v-299h-149v448l332 -1l-108 113
h150l187 -188z" />
    <glyph glyph-name="uniE679" unicode="&#xe679;" 
d="M512 831q-91 0 -174 -35.5t-143 -95.5t-95.5 -143t-35.5 -174t35.5 -174.5t95.5 -143.5t143 -95.5t174 -35.5t174.5 35.5t143.5 95.5t95.5 143.5t35.5 174.5t-35.5 174t-95.5 143t-143.5 95.5t-174.5 35.5zM699 196h-112l75 75h-187v-187h-112v224v75v224l-73 -70l-2 91
l132 129l130 -118v-102l-75 70v-224h187l-75 75h112l112 -138z" />
    <glyph glyph-name="uniE67A" unicode="&#xe67a;" 
d="M512 831q-91 0 -174 -35.5t-143 -95.5t-95.5 -143t-35.5 -174t35.5 -174.5t95.5 -143.5t143 -95.5t174 -35.5t174.5 35.5t143.5 95.5t95.5 143.5t35.5 174.5t-35.5 174t-95.5 143t-143.5 95.5t-174.5 35.5zM699 383l-112 98v-435h-150v435l-112 -98v149l187 174l190 -190
z" />
    <glyph glyph-name="uniE67B" unicode="&#xe67b;" 
d="M512 831q-91 0 -174 -35.5t-143 -95.5t-95.5 -143t-35.5 -174t35.5 -174.5t95.5 -143.5t143 -95.5t174 -35.5t174.5 35.5t143.5 95.5t95.5 143.5t35.5 174.5t-35.5 174t-95.5 143t-143.5 95.5t-174.5 35.5zM736 84h-149v299l-182 -1l100 -111h-152l-177 185l187 188h149
l-107 -113l331 1v-448z" />
    <glyph glyph-name="uniE67C" unicode="&#xe67c;" 
d="M512 831q-91 0 -174 -35.5t-143 -95.5t-95.5 -143t-35.5 -174t35.5 -174.5t95.5 -143.5t143 -95.5t174 -35.5t174.5 35.5t143.5 95.5t95.5 143.5t35.5 174.5t-35.5 174t-95.5 143t-143.5 95.5t-174.5 35.5zM735 537l-73 70v-224v-75v-224h-112v187h-187l74 -75h-112
l-112 124l112 138h112l-74 -75h187v224l-75 -70v102l130 118l131 -129z" />
    <glyph glyph-name="uniE67D" unicode="&#xe67d;" 
d="M512 -75l493 750h-986z" />
    <glyph glyph-name="uniE67E" unicode="&#xe67e;" 
d="M328 423q36 -53 146 -211h1q11 -14 28 -14q19 0 28 14q143 207 148 214l1 1q31 51 31 109q0 85 -61 146t-147 61t-147 -60.5t-61 -146.5q0 -61 33 -113zM502 691q64 0 109.5 -45.5t45.5 -109.5q0 -42 -22 -81q-3 -4 -24 -34t-55 -79.5t-53 -77.5q-13 20 -47 68.5
t-57.5 82t-27.5 38.5q-25 38 -25 82q1 64 46.5 110t109.5 46zM502 419q47 0 81 34t34 81.5t-34 81.5t-81 34t-81 -34t-34 -81.5t33.5 -81.5t81.5 -34zM502 598q26 0 44 -18.5t18 -43.5q0 -27 -18 -45t-44 -18t-44 18.5t-18 44t18 44t44 18.5zM943 149l-124 270l-92 -1
l-61 -73l117 2l100 -204l2 -2q10 -14 2 -31q-8 -16 -25 -16h-698q-18 0 -25 16q-7 17 2 32l1 1l101 203h96l-26 73h-107l-125 -270q-28 -40 -5 -82q24 -45 73 -45h730q23 0 42.5 12t29.5 33q20 44 -8 82z" />
    <glyph glyph-name="uniE67F" unicode="&#xe67f;" 
d="M716 487l-300 -301l-134 135q-10 9 -23 9t-22.5 -9.5t-9.5 -22.5t10 -22l157 -158q10 -9 23 -9t22 9q2 2 4 5l318 319q9 9 9 22.5t-9.5 22.5t-22.5 9t-22 -9zM512 746q-91 0 -173.5 -35t-142.5 -95t-95 -142.5t-35 -173.5t35 -173.5t95 -142.5t142.5 -95t173.5 -35
t173.5 35t142.5 95t95 142.5t35 173.5t-35 173.5t-95 142.5t-142.5 95t-173.5 35zM512 -90q-106 0 -196 52t-142 142t-52 196t52 196t142 142t196 52t196 -52t142 -142t52 -196t-52 -196t-142 -142t-196 -52z" />
    <glyph glyph-name="uniE680" unicode="&#xe680;" 
d="M512 748q-91 0 -174 -35.5t-143 -95.5t-95.5 -143t-35.5 -174t35.5 -174t95.5 -143t143 -95.5t174 -35.5t174 35.5t143 95.5t95.5 143t35.5 174t-35.5 174t-95.5 143t-143 95.5t-174 35.5zM512 -74q-101 0 -187 50.5t-136.5 136.5t-50.5 187t50.5 187t136.5 136.5
t187 50.5t187 -50.5t136.5 -136.5t50.5 -187t-50.5 -187t-136.5 -136.5t-187 -50.5z" />
    <glyph glyph-name="uniE681" unicode="&#xe681;" 
d="M511 832q-91 0 -173.5 -35.5t-142.5 -95.5t-95.5 -142.5t-35.5 -173.5t35.5 -174t95.5 -143t142.5 -95t173.5 -35t174 35t142.5 95t95 143t35.5 174t-35.5 173.5t-95 142.5t-142.5 95.5t-174 35.5zM752 499l-302 -302q-11 -11 -23 1l-21 20l-135 136q-5 5 -5 12t5 12
l37 37q5 6 12 6t12 -6l107 -106l252 252q10 10 23 -2l37 -37q12 -12 1 -23z" />
    <glyph glyph-name="uniE682" unicode="&#xe682;" 
d="M512 759l-493 -750h986z" />
    <glyph glyph-name="uniE683" unicode="&#xe683;" 
d="M306 -128q-25 51 -33.5 95t-1.5 80.5t20 64t35 60.5q26 37 44 79t23 65l6 23q2 -2 4.5 -6.5t10 -20t10.5 -31.5t6 -41.5t-4 -50.5q54 60 74 147t9 137q67 -47 114.5 -119t69 -152.5t15 -168t-45.5 -161.5q89 50 150.5 109t90 116t38.5 118t0.5 115.5t-29.5 108t-46 96.5
t-53.5 79.5t-49 58.5t-35.5 32q13 -28 16.5 -61.5t-5 -68.5t-31.5 -55q-17 63 -42 118.5t-51 92.5t-54 67.5t-52.5 48t-44.5 29.5t-31 16l-11 4q28 -194 -195 -469q-4 57 -11.5 92.5t-30.5 77.5q-4 -50 -28.5 -106.5t-54 -115.5t-38.5 -106q-25 -123 28.5 -215t213.5 -182z
" />
    <glyph glyph-name="uniE684" unicode="&#xe684;" 
d="M950 54h-22h-22h-788h-22h-22q0 3 0.5 9t0.5 7q-1 4 -1 6q0 5 3 10q7 52 35 96.5t72 72.5v194q0 105 61 190t158 119q1 44 33 75.5t76.5 31.5t76 -31.5t32.5 -75.5q97 -34 158.5 -119t61.5 -190v-194q43 -28 71.5 -72.5t35.5 -96.5q2 -5 2 -10q0 -2 -1 -6q0 -1 0.5 -7
t0.5 -9zM731 449q-21 53 -66 109q-19 24 -40.5 46t-34.5 32l-12 10q7 -2 19.5 -5.5t41.5 -20t48 -40.5q20 -25 31 -57.5t12 -53.5zM512 -55q27 0 46.5 19t19.5 47h44q0 -46 -32 -78t-77.5 -32t-77.5 32t-32 78h43q0 -28 19.5 -47t46.5 -19z" />
    <glyph glyph-name="uniE685" unicode="&#xe685;" 
d="M716 131q0 -10 0.5 -31.5t0.5 -30t-1 -21.5t-4 -21t-7 -14q-14 -18 -35 -23t-40 6q-19 12 -24 33.5t7 40.5q7 11 24.5 22t46.5 24t32 15zM846 638q-17 84 -85 139t-155 55q-62 0 -117.5 -30.5t-88.5 -82.5q-77 8 -138 -34.5t-81 -113.5q-66 -4 -112.5 -52.5t-46.5 -115.5
q0 -69 50 -118.5t120 -49.5h55q16 0 27 11t11 26.5t-11 26.5t-27 11h-55q-39 0 -66.5 27.5t-27.5 66t27.5 65.5t66.5 27q4 0 15 -1q16 -3 28.5 7t14.5 26q5 50 42.5 84t87.5 34q14 0 31 -4q13 -3 25 2.5t17 17.5q22 43 63.5 69t89.5 26q66 0 115 -44.5t54 -108.5
q1 -14 10.5 -23.5t23.5 -11.5q50 -5 84 -42t34 -86q0 -54 -39 -92.5t-93 -38.5h-33q-15 0 -26 -11t-11 -26.5t11 -26.5t26 -11h33q86 0 146.5 60.5t60.5 145.5q0 70 -43.5 125t-112.5 72zM440 406.5q-14 7.5 -29 3.5t-23 -17l-236 -403q-7 -14 -3 -29t17 -22q9 -5 19 -5
q22 0 33 18l236 403q8 14 4 29t-18 22.5zM710.5 406.5q-13.5 7.5 -28.5 3.5t-23 -17l-236 -403q-8 -14 -4 -29t18 -22q9 -5 19 -5q21 0 32 18l237 404q7 13 3 28t-17.5 22.5zM579.5 406.5q-13.5 7.5 -28.5 3.5t-23 -17l-202 -343q-7 -14 -3 -29t17 -22q9 -5 19 -5
q22 0 33 18l201 343q8 14 4 29t-17.5 22.5z" />
    <glyph glyph-name="uniE686" unicode="&#xe686;" 
d="M567 839v-399h399q-20 156 -131.5 268t-267.5 131zM452 325v58v57v403h-15v-6q-109 -17 -197.5 -81t-139.5 -162t-51 -211q0 -94 36.5 -179t98 -147t147 -98.5t179.5 -36.5q112 0 210.5 51t162 139.5t81.5 197.5h6v15h-518z" />
    <glyph glyph-name="uniE687" unicode="&#xe687;" 
d="M545 642q-21 10 -38 -5l-205 -176l-163 1q-15 0 -25.5 -11t-10.5 -26v-295q0 -15 10 -26t25 -11h165l204 -175q10 -9 23 -9q8 0 15 4q20 10 20 33v663q0 23 -20 33v0zM683 458q-13 7 -27 1.5t-20 -19t-1.5 -27.5t17.5 -21q3 -2 7 -4.5t13.5 -12t16.5 -21t13 -31.5t6 -43
q0 -24 -5.5 -45t-12 -33.5t-15.5 -22t-12.5 -12t-6.5 -4.5q-13 -7 -17.5 -21.5t1.5 -27.5q10 -21 32 -21q9 0 16 4q5 3 11.5 7t22 19.5t27 34.5t21 51.5t9.5 70.5q0 37 -10 68.5t-22.5 50t-28.5 33.5t-23 19.5t-12 6.5v0zM794 566q-13 9 -27 5.5t-22 -16t-5 -27.5t15 -24
q5 -3 12 -9t23 -25.5t28 -43.5t22 -64t10 -85t-9.5 -84.5t-21 -63.5t-27 -44t-22.5 -26t-11 -9q-12 -8 -15 -23t5 -28q11 -16 30 -16q11 0 20 6q6 4 15 12t29.5 33t36.5 55.5t28.5 81t12.5 107t-13 107t-29.5 81t-38 56t-31 33t-15.5 11.5v0zM794 566z" />
    <glyph glyph-name="uniE688" unicode="&#xe688;" horiz-adv-x="1025" 
d="M854 251q-21 0 -36 15t-15 36v109q0 120 -86 206q-56 56 -132 76v29q0 30 -21 52t-51 22q-31 1 -52.5 -20.5t-21.5 -52.5v-30q-76 -20 -132 -76q-86 -86 -86 -206v-109q0 -21 -15 -36t-36 -15q-18 0 -31 -13t-13 -31t13 -30.5t31 -12.5h684q18 0 31 12.5t13 30.5t-13 31
t-31 13zM512 -28q54 0 92 38t38 92h-260q0 -54 38 -92t92 -38z" />
    <glyph glyph-name="uniE689" unicode="&#xe689;" 
d="M713 652q-8 8 -20 8t-20.5 -8t-8.5 -20t9 -20l40 -40l-30 -31q-7 -8 -7 -18.5t7 -18t18 -6.5l41 12v-280q0 -9 -7 -17.5t-19 -8.5q-25 0 -25 26v178q0 32 -10 41.5t-41 9.5h-51v153q0 23 -6 35.5t-24 12.5h-245q-31 0 -31 -48v-459h-26q-25 0 -25 -25q0 -12 8 -19t21 -7
h351q12 0 20 7t8 19q0 25 -26 25h-25v255h25q27 0 27 -9v-163q0 -31 22 -53.5t53.5 -22.5t54 22.5t22.5 53.5v313q0 25 -18 42zM538 204q0 -11 -7.5 -18t-18.5 -7h-153q-10 0 -17.5 7t-7.5 18v383q0 10 7.5 17.5t17.5 7.5h153q11 0 18.5 -7.5t7.5 -17.5v-383zM512 893
q-104 0 -198 -40.5t-162.5 -109t-109 -163t-40.5 -198t40.5 -198t109 -163t162.5 -108.5t198 -40t198.5 40t162.5 108.5t108.5 163t40.5 198t-40.5 198t-108.5 163t-162.5 109t-198.5 40.5zM512.5 -76q-93.5 0 -178.5 36t-146.5 97.5t-98 146.5t-36.5 178.5t36.5 178.5
t98 146.5t146.5 98t178.5 36.5t178.5 -36.5t146.5 -98t97.5 -146.5t36 -178.5t-36 -178.5t-97.5 -146.5t-146.5 -97.5t-178.5 -36zM359 459h153v102h-153v-102z" />
    <glyph glyph-name="uniE68A" unicode="&#xe68a;" 
d="M953 -83h-441h-1h-441q-24 0 -40.5 17t-16.5 42v294q0 25 16.5 42t40.5 17t41 -17t17 -42v-235h767v235q0 25 17 42t41 17t41 -17t17 -42v-294q0 -25 -17 -42t-41 -17zM727 447l-173 -196q-17 -20 -42.5 -20t-42.5 20l-173 196q-15 17 -15 40q0 24 17 41.5t41 17.5
q25 0 43 -20l72 -82v357q0 25 17 42t40.5 17t40.5 -17t17 -42v-357l72 82q18 20 43 20q24 0 41 -17.5t17 -41.5q0 -23 -15 -40z" />
    <glyph glyph-name="uniE68B" unicode="&#xe68b;" 
d="M415 -2h-262q-22 0 -32 12q-7 8 -7 33v750q2 20 13 31q15 15 27 17h405v-108q-1 -41 21 -67q20 -23 54 -35l4 -2h144v-129q7 -6 22 -17.5t23 -17.5l8 -8v233l-232 204h-450q-31 0 -64 -33q-26 -26 -28 -65v-752q0 -43 18 -67q17 -21 44 -28q13 -4 30 -4h357
q-32 11 -63 28zM612 816l151 -134h-115q-19 9 -28 19q-8 9 -8 31v84zM612 816zM961 -52l-130 131q54 73 54 164q0 115 -81.5 196.5t-196.5 81.5t-196.5 -81.5t-81.5 -196.5t81.5 -196.5t196.5 -81.5q91 0 164 54l131 -130q12 -12 29.5 -12t29.5 12q13 12 12.5 29.5
t-12.5 29.5zM607 34q-86 0 -147.5 61t-61.5 148t61.5 148t148 61t147.5 -61t61 -148t-61 -148t-148 -61zM607 34z" />
    <glyph glyph-name="uniE68C" unicode="&#xe68c;" 
d="M329 445h-207q-50 0 -86 35.5t-36 86.5v207q0 50 36 86t86 36h207q51 0 86.5 -36t35.5 -86v-207q0 -51 -35.5 -86.5t-86.5 -35.5zM122 832q-24 0 -41 -17t-17 -41v-207q0 -24 17 -41t41 -17h207q24 0 41 17t17 41v207q0 24 -17 41t-41 17h-207zM838 445h-206
q-51 0 -87 35.5t-36 86.5v207q0 50 36 86t87 36h206q51 0 86.5 -36t35.5 -86v-207q0 -51 -35.5 -86.5t-86.5 -35.5zM632 832q-25 0 -42 -17t-17 -41v-207q0 -24 17 -41t42 -17h206q24 0 41.5 17t17.5 41v207q0 24 -17.5 41t-41.5 17h-206zM329 -64h-207q-50 0 -86 36t-36 86
v207q0 51 36 86.5t86 35.5h207q51 0 86.5 -35.5t35.5 -86.5v-207q0 -50 -35.5 -86t-86.5 -36zM122 323q-24 0 -41 -17t-17 -41v-207q0 -24 17 -41t41 -17h207q24 0 41 17t17 41v207q0 24 -17 41t-41 17h-207zM838 -64h-206q-51 0 -87 36t-36 86v207q0 51 36 86.5t87 35.5
h206q51 0 87 -35.5t36 -86.5v-207q0 -50 -36 -86t-87 -36zM632 323q-25 0 -42 -17t-17 -41v-207q0 -24 17 -41t42 -17h206q24 0 41.5 17t17.5 41v207q0 24 -17.5 41t-41.5 17h-206z" />
    <glyph glyph-name="uniE68D" unicode="&#xe68d;" 
d="M941 639q22 -26 21.5 -60.5t-24.5 -59.5l-363 -377q-25 -26 -60.5 -26t-60.5 26l-364 377q-23 25 -24 59.5t21 60.5h854z" />
    <glyph glyph-name="uniE68E" unicode="&#xe68e;" 
d="M512.5 808q-25.5 0 -43 -17.5t-17.5 -42.5v-121h121v121q0 25 -17.5 42.5t-43 17.5zM876 808q-25 0 -43 -17.5t-18 -42.5v-727q0 -25 18 -42.5t43 -17.5t42.5 17.5t17.5 42.5v727q0 25 -17.5 42.5t-42.5 17.5zM452 324h121v182h-121v-182zM452 21q0 -25 17.5 -42.5
t43 -17.5t43 17.5t17.5 42.5v182h-121v-182zM149 808q-25 0 -42.5 -17.5t-17.5 -42.5v-727q0 -25 17.5 -42.5t42.5 -17.5t43 17.5t18 42.5v727q0 25 -18 42.5t-43 17.5z" />
    <glyph glyph-name="uniE68F" unicode="&#xe68f;" 
d="M813 806h-601q-50 0 -85.5 -35.5t-35.5 -85.5v-601q0 -50 35.5 -85.5t85.5 -35.5h601q50 0 85.5 35.5t35.5 85.5v601q0 50 -35.5 85.5t-85.5 35.5zM212 625q0 25 17.5 42.5t42.5 17.5h17l248 -248l-319 -319q-6 12 -6 26v481zM813 144q0 -25 -17.5 -42.5t-42.5 -17.5
h-393l265 265l188 -188v-17zM813 331l-354 354h294q25 0 42.5 -17.5t17.5 -42.5v-294z" />
    <glyph glyph-name="uniE690" unicode="&#xe690;" 
d="M511.5 833q-91.5 0 -174.5 -35.5t-143 -95.5t-95.5 -143t-35.5 -174.5t35.5 -174.5t95.5 -143t143 -95.5t174.5 -35.5t174.5 35.5t143 95.5t95.5 143t35.5 174.5t-35.5 174.5t-95.5 143t-143 95.5t-174.5 35.5zM511.5 -27q-111.5 0 -206 55t-150 150t-55.5 206.5
t55.5 206.5t150 150t206 55t206.5 -55t150 -150t55 -206.5t-55 -206.5t-150 -150t-206.5 -55zM497 584q-84 -4 -149 -5q-2 17 -17 37q62 -5 97 -5t112 4t135 22q3 -18 10 -27.5t7 -12.5q0 -6 -11.5 -4t-25 2t-43.5 -3.5t-81 -5.5v-56q151 0 226 4v-35q-67 3 -177 3
q88 -74 203 -104q-18 -15 -28 -35q-140 60 -213 139h-11v-46q0 -27 2 -64h-39q3 41 3 64v46h-10q-48 -51 -90.5 -83t-123.5 -70q-8 20 -31 36q119 29 207 117q-110 0 -179 -3v35q75 -4 227 -4v54zM506 252q-149 0 -215 -5v38q81 -6 215 -6v25l86 48h-123q-63 0 -109 -3v33
q52 -2 156.5 -2t156.5 2v-27q-23 1 -52 -17l-81 -47v-12q127 0 206 6v-38q-55 5 -206 5v-65q0 -31 -7 -44t-30 -19t-78 -8q0 23 -16 44q33 -4 54 -4t32 4.5t11 19.5v72z" />
    <glyph glyph-name="uniE691" unicode="&#xe691;" 
d="M511.5 833q-91.5 0 -174.5 -35.5t-143 -95.5t-95.5 -143t-35.5 -174.5t35.5 -174.5t95.5 -143t143 -95.5t174.5 -35.5t174.5 35.5t143 95.5t95.5 143t35.5 174.5t-35.5 174.5t-95.5 143t-143 95.5t-174.5 35.5zM511.5 -27q-111.5 0 -206 55t-150 150t-55.5 206.5
t55.5 206.5t150 150t206 55t206.5 -55t150 -150t55 -206.5t-55 -206.5t-150 -150t-206.5 -55zM399 583q201 0 254.5 1.5t88.5 7.5v-42q-10 3 -188 3v-84q113 0 150 3v-35q-31 2 -150 2v-116q132 0 215 4v-38q-84 4 -215 4v-80q0 -46 6 -99h-48q5 53 5 99v80q-196 0 -264 -4
v38q41 -3 101 -3v75q0 47 -4 73q50 -3 167 -3v84h-138q-41 -58 -75 -95q-16 17 -35 25q87 72 127 175q12 -15 36 -23q6 -2 6 -8t-5.5 -6.5t-11.5 -6.5t-22 -31zM517 439h-125v-116h125v116z" />
    <glyph glyph-name="uniE692" unicode="&#xe692;" 
d="M511.5 833q-91.5 0 -174.5 -35.5t-143 -95.5t-95.5 -143t-35.5 -174.5t35.5 -174.5t95.5 -143t143 -95.5t174.5 -35.5t174.5 35.5t143 95.5t95.5 143t35.5 174.5t-35.5 174.5t-95.5 143t-143 95.5t-174.5 35.5zM511.5 -27q-111.5 0 -206 55t-150 150t-55.5 206.5
t55.5 206.5t150 150t206 55t206.5 -55t150 -150t55 -206.5t-55 -206.5t-150 -150t-206.5 -55zM499 572q-128 0 -190 -5v38q49 -4 208.5 -4t205.5 4v-38q-46 5 -189 5q2 -89 -9 -156q187 0 236 5v-39q-46 5 -220 5q30 -73 92 -134.5t136 -90.5q-23 -10 -37 -38
q-176 121 -217 249q-21 -78 -73.5 -138.5t-153.5 -117.5q-9 19 -34 33q97 43 151.5 100t75.5 137q-153 0 -214 -5v39q46 -5 221 -5q14 66 11 156z" />
    <glyph glyph-name="uniE693" unicode="&#xe693;" 
d="M511.5 833q-91.5 0 -174.5 -35.5t-143 -95.5t-95.5 -143t-35.5 -174.5t35.5 -174.5t95.5 -143t143 -95.5t174.5 -35.5t174.5 35.5t143 95.5t95.5 143t35.5 174.5t-35.5 174.5t-95.5 143t-143 95.5t-174.5 35.5zM511.5 -27q-111.5 0 -206 55t-150 150t-55.5 206.5
t55.5 206.5t150 150t206 55t206.5 -55t150 -150t55 -206.5t-55 -206.5t-150 -150t-206.5 -55zM653 320h-271q-7 -118 -87 -204q-12 21 -39 25q47 33 67.5 89t20.5 151v158q0 56 -2 77q56 -3 175.5 -3t174.5 3q-1 -39 -1 -77v-351q0 -30 -8 -43t-33 -17.5t-82 -4.5q1 6 1 11
q0 21 -19 37q44 -7 64.5 -7t29.5 7t9 27v122zM382 479h271v105h-271v-105zM653 451h-271v-103h271v103z" />
    <glyph glyph-name="uniE694" unicode="&#xe694;" 
d="M857 75v623q58 -63 90.5 -143t32.5 -168.5t-32.5 -168.5t-90.5 -143zM184 75q-58 63 -90 143t-32 168.5t32 168.5t90 143v-623zM343 472q-50 0 -76 -6v39q26 -6 76 -6q0 128 -5 167q18 -4 44 -4q9 0 9 -4.5t-7 -9t-7 -15.5v-133q35 1 58 5v-39q-23 5 -58 5v-185
q33 11 67 26q-1 -5 -1 -14.5t4 -22.5q-85 -21 -173 -57q-2 22 -19 41q46 6 88 17v196zM635 581q37 52 54 92q13 -13 35 -22q8 -2 8 -6.5t-8.5 -6.5t-20 -13t-36.5 -44q55 1 99 4q-4 -32 -4 -94t4 -91q-41 5 -148.5 5t-170.5 -5q4 40 4 92t-4 93q54 -4 106 -4h82zM514 186
v-31h-38q4 27 4 55v94q0 43 -4 62q40 -4 138 -4t127 4q-4 -22 -4 -62v-86q0 -24 4 -60h-38v28h-189zM590 429v128h-107v-128h107zM577 608l-25 -23q-28 37 -68 61l21 24q37 -24 72 -62zM575 465l-27 -17q-22 44 -52 71l24 19q32 -34 55 -73zM514 287h189v49h-189v-49z
M703 262h-189v-51h189v51zM622 557v-128h109v128h-109zM681 543q14 -12 26.5 -15t12.5 -6.5t-8 -6.5q-12 -6 -53 -71l-26 13q33 38 48 86z" />
    <glyph glyph-name="uniE695" unicode="&#xe695;" 
d="M511.5 833q-91.5 0 -174.5 -35.5t-143 -95.5t-95.5 -143t-35.5 -174.5t35.5 -174.5t95.5 -143t143 -95.5t174.5 -35.5t174.5 35.5t143 95.5t95.5 143t35.5 174.5t-35.5 174.5t-95.5 143t-143 95.5t-174.5 35.5zM511.5 -27q-111.5 0 -206 55t-150 150t-55.5 206.5
t55.5 206.5t150 150t206 55t206.5 -55t150 -150t55 -206.5t-55 -206.5t-150 -150t-206.5 -55zM730 617q-3 -34 -3 -105v-318q0 -41 -11 -52.5t-31.5 -15t-61.5 -3.5q0 26 -18 44q30 -4 48.5 -4t28 5t9.5 22v394h-347v-174q0 -94 -3 -139t-13 -78t-33 -74q-16 15 -45 13
q26 33 38 63t16.5 75t4.5 131v216q69 -3 209.5 -3t211.5 3zM497 482q-80 -1 -114 -3v32q38 -4 114 -4q0 42 -5 56q22 -2 36.5 -2t14.5 -2.5t-6.5 -4.5t-6.5 -20v-27q77 0 115 4v-32q-34 2 -115 3v-59q94 0 139 3v-32q-68 3 -154.5 3t-153.5 -3v32q45 -3 136 -3v59zM624 221
q-44 4 -114.5 4t-105.5 -4q3 28 3 70.5t-3 69.5q35 -4 110 -4t110 4q-3 -30 -3 -70t3 -70zM588 251v79h-147v-79h147z" />
    <glyph glyph-name="uniE696" unicode="&#xe696;" 
d="M857 75v623q58 -63 90.5 -143t32.5 -168.5t-32.5 -168.5t-90.5 -143zM184 75q-58 63 -90 143t-32 168.5t32 168.5t90 143v-623zM359 333q-19 -87 -56 -157l-37 15q43 66 57 151zM539 545q57 71 84 130q17 -15 37 -22q10 -3 10 -7.5t-8.5 -6t-25.5 -20.5t-58 -74
q74 1 114 6q-1 -43 -1 -90t1 -76q-65 4 -174.5 4t-170.5 -5q4 30 4 83t-4 84q61 -6 192 -6zM483 582l-26 -26q-37 46 -90 83l23 26q54 -41 93 -83zM656 416v102h-271v-102h271zM687 254q-8 -42 -22.5 -60.5t-41 -23t-90 -4.5t-89.5 2.5t-35 12t-9 29.5v95q0 25 -2 33
q14 -2 23 -2l17 1q6 0 6 -4.5t-6 -10t-6 -17.5v-80q0 -18 14.5 -22t72.5 -4q86 0 100.5 5.5t21 22.5t9.5 50q15 -18 37 -23zM591 268l-30 -23q-40 67 -85 107l28 22q49 -49 87 -106zM777 219l-35 -21q-34 79 -88 144l30 20q55 -73 93 -143z" />
    <glyph glyph-name="uniE697" unicode="&#xe697;" 
d="M136 -98q-35 0 -60 18q-22 15 -25 50q-4 44 20 69q19 20 328 315l-26 29q-25 -3 -51 -3q-27 0 -44 5q-16 4 -54 39q-34 31 -73 75q-97 106 -108 146q-14 50 -5 115q0 25 12 47t38 22q36 0 93 -59q53 -55 318 -325l33 35q-35 33 -40 59q-3 27 -0.5 38t14.5 36q1 1 2.5 4
t1.5 5q16 32 103 117.5t123 113.5q14 11 28 11q26 0 39 -27q11 -23 0 -38q-14 -19 -184 -197q-17 -23 -9 -31q1 -2 3 -2q10 0 26 14q0 1 45 46.5t87 88t48 48.5q12 12 28 12q13 0 23.5 -8.5t15.5 -20.5q10 -22 -3 -38q-36 -42 -178 -201l-1 -1q-11 -13 -4 -22q1 -2 3 -2
q10 0 23 12q3 2 88.5 89t95.5 97t25 10t30 -9.5t21 -23.5q9 -18 -3 -32l-1 -2l-2 -2q-66 -83 -122 -143q-110 -119 -154 -119q-4 0 -7 1q-37 7 -75 37l-36 -43q274 -275 319 -320q21 -21 19 -61q-2 -34 -27 -54q-23 -19 -55 -19q-37 0 -54 21q-15 19 -288 333l-308 -334
q-20 -21 -56 -21z" />
    <glyph glyph-name="uniE698" unicode="&#xe698;" 
d="M578 251h-264v-297q0 -23 -21.5 -44.5t-43.5 -21.5q-24 0 -45 17t-21 40v875q0 19 10 35t26 22h330q121 0 207 -89t86 -215q0 -85 -31.5 -158t-93 -118.5t-139.5 -45.5zM578 745h-264v-362h264q52 0 92 59t40 122.5t-40 122t-92 58.5z" />
    <glyph glyph-name="uniE699" unicode="&#xe699;" 
d="M987 637q-2 -6 -30.5 -107t-44.5 -144q-12 -40 -31 -56q-12 -10 -29 -12h-464q-17 0 -29.5 -12.5t-12.5 -30.5t12.5 -30.5t29.5 -12.5h459q19 0 33 -14t14 -34.5t-14 -34.5t-33 -14h-524q-49 0 -73 56q-2 4 -3 8q-6 17 -8 32q-1 0 -18.5 88t-42 213.5t-39.5 202.5h-45
q-25 0 -42 17.5t-17 42.5t17 43t42 18h79q15 0 26.5 -2t20.5 -8t15.5 -10.5t12 -17t9 -20t7 -26t5.5 -28.5t6 -35h643q29 0 43 -6t23 -22q7 -11 6 -24q0 -11 -3 -20zM287 587l36 -147h476l48 147h-560zM987 636v1v-1zM364.5 95q35.5 0 60.5 -25.5t25 -62t-25 -62.5
t-60.5 -26t-60.5 26t-25 62.5t25 62t60.5 25.5zM750.5 95q35.5 0 60.5 -25.5t25 -62t-25 -62.5t-60.5 -26t-60.5 26t-25 62.5t25 62t60.5 25.5z" />
    <glyph glyph-name="uniE69A" unicode="&#xe69a;" 
d="M751 700q42 -30 74.5 -68t56 -82t35.5 -93t12 -100q0 -87 -33 -163.5t-89.5 -133t-132.5 -90t-162 -33.5t-162 33.5t-132.5 90t-89 133t-32.5 163.5q0 50 11.5 97.5t33 91t53 81t70.5 67.5q21 15 44.5 11t38.5 -23.5t11 -44t-23 -39.5q-59 -43 -90 -106t-31 -135
q0 -62 23 -117t63.5 -95.5t95 -64.5t116 -24t116 24t95 64.5t64.5 95.5t24 117q0 73 -33.5 138.5t-94.5 107.5q-20 14 -24.5 38.5t9.5 44.5t38 24t45 -10v0zM512 354q-24 0 -41.5 17.5t-17.5 41.5v357q0 24 17.5 42t41.5 18q25 0 42 -18t17 -42v-357q0 -24 -17 -41.5
t-42 -17.5v0z" />
    <glyph glyph-name="uniE69B" unicode="&#xe69b;" horiz-adv-x="1463" 
d="M251 284v441q0 34 -23.5 57.5t-57 23.5t-57 -23.5t-23.5 -57.5v-682q0 -34 23.5 -57.5t57 -23.5t57 23.5t23.5 57.5v80h884v-80q0 -34 23.5 -57.5t56.5 -23.5t56.5 23.5t23.5 57.5v482q0 33 -23.5 56.5t-56.5 23.5t-56.5 -23.5t-23.5 -56.5v-241h-884zM411.5 324
q41.5 0 71 29.5t29.5 71t-29.5 71t-71 29.5t-71 -29.5t-29.5 -71t29.5 -71t71 -29.5zM552 424q0 33 23.5 57t57.5 24h361q33 0 56.5 -24t23.5 -57t-23.5 -56.5t-56.5 -23.5h-361q-34 0 -57.5 23.5t-23.5 56.5z" />
    <glyph glyph-name="uniE69C" unicode="&#xe69c;" 
d="M661 -54v410h28q11 0 19.5 -8t8.5 -20v-261q0 -50 35.5 -85.5t85.5 -35.5t85.5 35.5t35.5 85.5v501q0 40 -28 67l-99 98q-14 14 -32.5 14t-32 -13.5t-13.5 -32.5t13 -32l64 -65l-47 -49q-12 -12 -12 -28.5t12 -28.5q11 -12 28 -12h54v-419q0 -11 -8.5 -19.5t-20 -8.5
t-19.5 8.5t-8 19.5v261q0 50 -35.5 85.5t-85.5 35.5h-28v223q0 31 -22 53t-53 22h-390q-31 0 -53 -22t-22 -53v-726h-9q-19 0 -33 -13.5t-14 -32.5t14 -33t33 -14h558q19 0 33 14t14 33t-14 32.5t-33 13.5h-9zM255 654h272q17 0 29 -12t12 -29v-198q0 -17 -12 -29t-29 -12
h-272q-17 0 -29 12t-12 29v198q0 17 12 29t29 12z" />
    <glyph glyph-name="uniE69D" unicode="&#xe69d;" 
d="M512.5 482q-23.5 0 -40 -16.5t-16.5 -40t16.5 -40t40 -16.5t40 16.5t16.5 40t-16.5 40t-40 16.5zM343 482q-23 0 -39.5 -16.5t-16.5 -40t16.5 -40t39.5 -16.5t39.5 16.5t16.5 40t-16.5 40t-39.5 16.5zM512.5 820q-122.5 0 -226.5 -52.5t-164.5 -143.5t-60.5 -198
q0 -77 32 -146.5t89 -123.5q15 -13 17.5 -46t-1.5 -65t2 -60.5t26 -36.5q23 -8 80.5 12.5t119.5 45.5t86 25q123 0 227 52.5t164 143.5t60 198.5t-60 198.5t-164 143.5t-226.5 52.5zM512 144q-92 0 -170 37.5t-123 102.5t-45 141.5t45 141.5t123 103t170 38t170 -38
t123.5 -103t45.5 -141.5t-45.5 -141.5t-123.5 -102.5t-170 -37.5zM681.5 482q-23.5 0 -40 -16.5t-16.5 -40t16.5 -40t40 -16.5t40 16.5t16.5 40t-16.5 40t-40 16.5z" />
    </font>
</defs>
</svg>
