<?xml version="1.0" encoding="utf-8"?>
<!-- Generator: Adobe Illustrator 19.1.0, SVG Export Plug-In . SVG Version: 6.00 Build 0)  -->
<svg version="1.1" baseProfile="tiny" id="Layer_1" xmlns="http://www.w3.org/2000/svg" xmlns:xlink="http://www.w3.org/1999/xlink"
	 x="0px" y="0px" viewBox="-240 332 130 130" xml:space="preserve">
<g id="Layer_1_1_">
	<g>
		<path fill="#000000" d="M-206.2,419.2h62.3v-44.3h-62.3V419.2z M-178.9,397.3c0,0,17.7-12.7,17.7-12.7l-4-5.6
			c-0.2-0.3-0.2-0.5-0.1-0.9c0.2-0.4,0.5-0.5,0.8-0.5l16.2-0.1c0.4,0,0.6,0.1,0.8,0.4c0.2,0.2,0.2,0.5,0.1,0.8l-5.2,15.4
			c-0.1,0.3-0.4,0.6-0.8,0.6c-0.4,0-0.7-0.1-0.9-0.3l-3.9-5.4c0,0-17.7,12.7-17.7,12.7c-0.7,0.5-1.6,0.3-2.1-0.4l-1.4-1.9
			C-179.7,398.8-179.5,397.8-178.9,397.3z"/>
		<path fill="#000000" d="M-175,340.9c-31,0-56.1,25.1-56.1,56.1s25.1,56.1,56.1,56.1c31,0,56.1-25.1,56.1-56.1
			S-144,340.9-175,340.9z M-138.4,420.3c0,2.3-1.9,4.2-4.2,4.2h-64.7c-2.3,0-4.2-1.9-4.2-4.2v-46.7c0-2.3,1.9-4.2,4.2-4.2h64.7
			c2.3,0,4.2,1.9,4.2,4.2V420.3z"/>
	</g>
</g>
<g id="Layer_2">
	<path fill="#FFFFFF" d="M-147.4,377.9c-0.2-0.3-0.4-0.4-0.8-0.4l-16.2,0.1c-0.4,0-0.7,0.1-0.8,0.5c-0.2,0.4-0.2,0.6,0.1,0.9l4,5.6
		c-0.1,0-17.7,12.7-17.7,12.7c-0.7,0.5-0.8,1.5-0.4,2.1l1.4,1.9c0.5,0.7,1.5,0.8,2.1,0.4c0,0,17.6-12.7,17.7-12.7l3.9,5.4
		c0.2,0.3,0.4,0.4,0.9,0.3c0.4,0,0.7-0.3,0.8-0.6l5.2-15.4C-147.2,378.4-147.2,378.1-147.4,377.9z"/>
	<path fill="#FFFFFF" d="M-142.7,424.6h-64.7c-2.3,0-4.2-1.9-4.2-4.2v-46.7c0-2.3,1.9-4.2,4.2-4.2h64.7c2.3,0,4.2,1.9,4.2,4.2v46.7
		C-138.4,422.7-140.3,424.6-142.7,424.6z M-206.2,419.2h62.3v-44.3h-62.3V419.2z"/>
</g>
</svg>
