<?xml version="1.0" encoding="utf-8"?>
<!-- Generator: Adobe Illustrator 19.1.0, SVG Export Plug-In . SVG Version: 6.00 Build 0)  -->
<svg version="1.1" baseProfile="tiny" id="Layer_1" xmlns="http://www.w3.org/2000/svg" xmlns:xlink="http://www.w3.org/1999/xlink"
	 x="0px" y="0px" viewBox="-240 332 130 130" xml:space="preserve">
<g id="Layer_1_1_">
	<path fill="#000000" d="M-175,334.6c-34.4,0-62.4,27.9-62.4,62.4s27.9,62.4,62.4,62.4s62.4-27.9,62.4-62.4S-140.6,334.6-175,334.6z
		 M-137.9,405.6c0,0.6-0.2,1-0.6,1.4c-0.4,0.4-0.8,0.6-1.2,0.6h-24.8v24.6c0,0.6-0.2,1-0.6,1.4s-0.8,0.6-1.2,0.6h-17.4
		c-0.4,0-0.8-0.2-1.2-0.6c-0.4-0.4-0.6-0.8-0.6-1.4v-24.6h-24.8c-0.4,0-0.8-0.2-1.2-0.6s-0.6-0.8-0.6-1.4v-17.2c0-1.4,0.6-2,1.8-2
		h24.8v-24.6c0-1.4,0.6-2,1.8-2h17.4c1.2,0,1.8,0.6,1.8,2v24.6h24.8c1.2,0,1.8,0.6,1.8,2C-137.9,388.4-137.9,405.6-137.9,405.6z"/>
</g>
<g id="Layer_2">
	<path fill="#FFFFFF" d="M-164.5,386.4h24.8c1.2,0,1.8,0.6,1.8,2v17.2c0,0.6-0.2,1-0.6,1.4c-0.4,0.4-0.8,0.6-1.2,0.6h-24.8v24.6
		c0,0.6-0.2,1-0.6,1.4s-0.8,0.6-1.2,0.6h-17.4c-0.4,0-0.8-0.2-1.2-0.6c-0.4-0.4-0.6-0.8-0.6-1.4v-24.6h-24.8c-0.4,0-0.8-0.2-1.2-0.6
		s-0.6-0.8-0.6-1.4v-17.2c0-1.4,0.6-2,1.8-2h24.8v-24.6c0-1.4,0.6-2,1.8-2h17.4c1.2,0,1.8,0.6,1.8,2V386.4z"/>
</g>
</svg>
