<?xml version="1.0" encoding="utf-8"?>
<!-- Generator: Adobe Illustrator 19.1.0, SVG Export Plug-In . SVG Version: 6.00 Build 0)  -->
<svg version="1.1" baseProfile="tiny" id="Layer_1" xmlns="http://www.w3.org/2000/svg" xmlns:xlink="http://www.w3.org/1999/xlink"
	 x="0px" y="0px" viewBox="-240 332 130 130" xml:space="preserve">
<path fill="#FFFFFF" d="M-143.2,387.5c1.1,0,1.6,0.5,1.6,1.8v15.5c0,0.5-0.2,0.9-0.5,1.3c-0.4,0.4-0.7,0.5-1.1,0.5h-63.5
	c-0.4,0-0.7-0.2-1.1-0.5c-0.4-0.4-0.5-0.7-0.5-1.3v-15.5c0-1.3,0.5-1.8,1.6-1.8H-143.2z"/>
<path fill="#000000" d="M-175,340.9c-31,0-56.1,25.1-56.1,56.1s25.1,56.1,56.1,56.1s56.1-25.1,56.1-56.1S-144,340.9-175,340.9z
	 M-141.6,404.7c0,0.5-0.2,0.9-0.5,1.3c-0.4,0.4-0.7,0.5-1.1,0.5h-63.5c-0.4,0-0.7-0.2-1.1-0.5c-0.4-0.4-0.5-0.7-0.5-1.3v-15.5
	c0-1.3,0.5-1.8,1.6-1.8h63.5c1.1,0,1.6,0.5,1.6,1.8V404.7z"/>
</svg>
