<?xml version="1.0" encoding="utf-8"?>
<!-- Generator: Adobe Illustrator 19.1.0, SVG Export Plug-In . SVG Version: 6.00 Build 0)  -->
<svg version="1.1" baseProfile="tiny" id="Layer_1" xmlns="http://www.w3.org/2000/svg" xmlns:xlink="http://www.w3.org/1999/xlink"
	 x="0px" y="0px" viewBox="-240 332 130 130" xml:space="preserve">
<path fill="#FFFFFF" d="M-139.7,386.4c1.2,0,1.8,0.6,1.8,2v17.2c0,0.6-0.2,1-0.6,1.4c-0.4,0.4-0.8,0.6-1.2,0.6h-70.6
	c-0.4,0-0.8-0.2-1.2-0.6c-0.4-0.4-0.6-0.8-0.6-1.4v-17.2c0-1.4,0.6-2,1.8-2H-139.7z"/>
<path fill="#000000" d="M-175,334.6c-34.4,0-62.4,27.9-62.4,62.4s27.9,62.4,62.4,62.4s62.4-27.9,62.4-62.4S-140.6,334.6-175,334.6z
	 M-137.9,405.6c0,0.6-0.2,1-0.6,1.4c-0.4,0.4-0.8,0.6-1.2,0.6h-70.6c-0.4,0-0.8-0.2-1.2-0.6s-0.6-0.8-0.6-1.4v-17.2
	c0-1.4,0.6-2,1.8-2h70.6c1.2,0,1.8,0.6,1.8,2V405.6z"/>
</svg>
